M48
;DRILL file {KiCad 5.0.2-1.fc29} date N 27 dets  2018 16:56:51 EET
;FORMAT={-:-/ absolute / inch / decimal}
FMAT,2
INCH,TZ
T1C0.0157
T2C0.0295
T3C0.0315
T4C0.0394
T5C0.0400
%
G90
G05
T1
X2.679Y-3.8074
X2.7421Y-2.891
X2.8192Y-3.0265
X2.8584Y-4.7141
X3.5683Y-2.2973
X3.5831Y-4.2134
X3.9498Y-3.0477
X4.2005Y-2.8495
X4.2671Y-3.7091
X4.3258Y-4.8461
X5.6992Y-4.5151
X5.6993Y-2.8781
X6.765Y-3.1577
X7.1117Y-2.1956
X7.1372Y-2.1
X7.264Y-2.3
X7.3978Y-3.9357
X7.4086Y-4.8242
X7.5121Y-4.0327
X8.0956Y-2.6246
X8.2257Y-2.4836
X8.26Y-2.3
X8.2747Y-4.7557
X8.2951Y-2.2
X8.4763Y-4.1083
X8.5245Y-4.2148
X8.5518Y-3.0525
T2
X4.05Y-2.55
X4.05Y-2.6
X4.05Y-2.65
X4.05Y-5.15
X4.05Y-5.2
X4.05Y-5.25
X2.6Y-4.5
X2.6Y-4.55
X2.6Y-4.6
X6.95Y-4.5
X6.95Y-4.55
X6.95Y-4.6
X6.95Y-2.55
X6.95Y-2.6
X6.95Y-2.65
X4.05Y-3.85
X4.05Y-3.9
X4.05Y-3.95
X2.6Y-3.2
X2.6Y-3.25
X2.6Y-3.3
X8.1Y-3.95
X8.1Y-4.
X8.1Y-4.05
X6.95Y-5.15
X6.95Y-5.2
X6.95Y-5.25
X6.95Y-3.85
X6.95Y-3.9
X6.95Y-3.95
X2.6Y-5.15
X2.6Y-5.2
X2.6Y-5.25
X4.05Y-1.9
X4.05Y-1.95
X4.05Y-2.
X6.95Y-3.2
X6.95Y-3.25
X6.95Y-3.3
X2.6Y-2.55
X2.6Y-2.6
X2.6Y-2.65
X4.05Y-4.5
X4.05Y-4.55
X4.05Y-4.6
X5.5Y-2.55
X5.5Y-2.6
X5.5Y-2.65
X2.6Y-3.85
X2.6Y-3.9
X2.6Y-3.95
X2.6Y-1.9
X2.6Y-1.95
X2.6Y-2.
X5.5Y-3.2
X5.5Y-3.25
X5.5Y-3.3
X5.5Y-4.5
X5.5Y-4.55
X5.5Y-4.6
X6.95Y-1.9
X6.95Y-1.95
X6.95Y-2.
X5.5Y-1.9
X5.5Y-1.95
X5.5Y-2.
X5.5Y-5.15
X5.5Y-5.2
X5.5Y-5.25
X4.05Y-3.2
X4.05Y-3.25
X4.05Y-3.3
X5.5Y-3.85
X5.5Y-3.9
X5.5Y-3.95
T3
X6.95Y-4.95
X6.95Y-5.05
X1.4528Y-3.6567
X1.4528Y-3.9567
X1.6528Y-3.6567
X1.6528Y-3.9567
X1.8528Y-3.6567
X1.8528Y-3.9567
X2.1528Y-3.6567
X2.1528Y-3.9567
X3.8Y-3.65
X3.8Y-3.95
X7.85Y-2.45
X7.9287Y-2.45
X5.8028Y-4.3067
X5.8028Y-4.6067
X6.0028Y-4.3067
X6.0028Y-4.6067
X6.2028Y-4.3067
X6.2028Y-4.6067
X6.5028Y-4.3067
X6.5028Y-4.6067
X6.7Y-4.95
X6.7Y-5.25
X4.05Y-2.35
X4.05Y-2.45
X4.05Y-3.
X4.05Y-3.1
X5.25Y-4.95
X5.25Y-5.25
X3.8Y-3.
X3.8Y-3.3
X2.9028Y-3.0067
X2.9028Y-3.3067
X3.1028Y-3.0067
X3.1028Y-3.3067
X3.3028Y-3.0067
X3.3028Y-3.3067
X3.6028Y-3.0067
X3.6028Y-3.3067
X2.6Y-1.7
X2.6Y-1.8
X5.8028Y-2.3567
X5.8028Y-2.6567
X6.0028Y-2.3567
X6.0028Y-2.6567
X6.2028Y-2.3567
X6.2028Y-2.6567
X6.5028Y-2.3567
X6.5028Y-2.6567
X2.35Y-3.
X2.35Y-3.3
X7.9Y-4.9713
X7.9Y-5.05
X2.9028Y-4.3067
X2.9028Y-4.6067
X3.1028Y-4.3067
X3.1028Y-4.6067
X3.3028Y-4.3067
X3.3028Y-4.6067
X3.6028Y-4.3067
X3.6028Y-4.6067
X2.35Y-2.35
X2.35Y-2.65
X6.7Y-2.35
X6.7Y-2.65
X2.6Y-3.65
X2.6Y-3.75
X5.5Y-2.35
X5.5Y-2.45
X6.95Y-2.35
X6.95Y-2.45
X5.5Y-3.65
X5.5Y-3.75
X2.9028Y-2.3567
X2.9028Y-2.6567
X3.1028Y-2.3567
X3.1028Y-2.6567
X3.3028Y-2.3567
X3.3028Y-2.6567
X3.6028Y-2.3567
X3.6028Y-2.6567
X2.6Y-3.
X2.6Y-3.1
X2.6Y-4.95
X2.6Y-5.05
X3.8Y-2.35
X3.8Y-2.65
X1.4528Y-4.9567
X1.4528Y-5.2567
X1.6528Y-4.9567
X1.6528Y-5.2567
X1.8528Y-4.9567
X1.8528Y-5.2567
X2.1528Y-4.9567
X2.1528Y-5.2567
X1.4528Y-4.3067
X1.4528Y-4.6067
X1.6528Y-4.3067
X1.6528Y-4.6067
X1.8528Y-4.3067
X1.8528Y-4.6067
X2.1528Y-4.3067
X2.1528Y-4.6067
X5.25Y-3.65
X5.25Y-3.95
X4.05Y-1.7
X4.05Y-1.8
X1.4528Y-1.7067
X1.4528Y-2.0067
X1.6528Y-1.7067
X1.6528Y-2.0067
X1.8528Y-1.7067
X1.8528Y-2.0067
X2.1528Y-1.7067
X2.1528Y-2.0067
X5.25Y-4.3
X5.25Y-4.6
X6.95Y-1.7
X6.95Y-1.8
X7.8Y-4.15
X7.8Y-4.2287
X6.95Y-3.65
X6.95Y-3.75
X5.8028Y-1.7067
X5.8028Y-2.0067
X6.0028Y-1.7067
X6.0028Y-2.0067
X6.2028Y-1.7067
X6.2028Y-2.0067
X6.5028Y-1.7067
X6.5028Y-2.0067
X4.05Y-3.65
X4.05Y-3.75
X4.3528Y-2.3567
X4.3528Y-2.6567
X4.5528Y-2.3567
X4.5528Y-2.6567
X4.7528Y-2.3567
X4.7528Y-2.6567
X5.0528Y-2.3567
X5.0528Y-2.6567
X4.3528Y-3.0067
X4.3528Y-3.3067
X4.5528Y-3.0067
X4.5528Y-3.3067
X4.7528Y-3.0067
X4.7528Y-3.3067
X5.0528Y-3.0067
X5.0528Y-3.3067
X8.05Y-4.25
X8.15Y-4.25
X6.7Y-1.7
X6.7Y-2.
X5.5Y-3.
X5.5Y-3.1
X5.8028Y-3.0067
X5.8028Y-3.3067
X6.0028Y-3.0067
X6.0028Y-3.3067
X6.2028Y-3.0067
X6.2028Y-3.3067
X6.5028Y-3.0067
X6.5028Y-3.3067
X6.95Y-3.
X6.95Y-3.1
X3.8Y-4.3
X3.8Y-4.6
X2.35Y-1.7
X2.35Y-2.
X6.7Y-4.3
X6.7Y-4.6
X5.5Y-4.3
X5.5Y-4.4
X2.6Y-2.35
X2.6Y-2.45
X4.3528Y-4.3067
X4.3528Y-4.6067
X4.5528Y-4.3067
X4.5528Y-4.6067
X4.7528Y-4.3067
X4.7528Y-4.6067
X5.0528Y-4.3067
X5.0528Y-4.6067
X7.9Y-3.5213
X7.9Y-3.6
X2.35Y-3.65
X2.35Y-3.95
X4.05Y-4.3
X4.05Y-4.4
X4.05Y-4.95
X4.05Y-5.05
X3.8Y-1.7
X3.8Y-2.
X6.95Y-4.3
X6.95Y-4.4
X5.8028Y-4.9567
X5.8028Y-5.2567
X6.0028Y-4.9567
X6.0028Y-5.2567
X6.2028Y-4.9567
X6.2028Y-5.2567
X6.5028Y-4.9567
X6.5028Y-5.2567
X6.7Y-3.
X6.7Y-3.3
X2.35Y-4.3
X2.35Y-4.6
X2.9028Y-1.7067
X2.9028Y-2.0067
X3.1028Y-1.7067
X3.1028Y-2.0067
X3.3028Y-1.7067
X3.3028Y-2.0067
X3.6028Y-1.7067
X3.6028Y-2.0067
X5.25Y-3.
X5.25Y-3.3
X6.7Y-3.65
X6.7Y-3.95
X2.9028Y-3.6567
X2.9028Y-3.9567
X3.1028Y-3.6567
X3.1028Y-3.9567
X3.3028Y-3.6567
X3.3028Y-3.9567
X3.6028Y-3.6567
X3.6028Y-3.9567
X5.5Y-1.7
X5.5Y-1.8
X4.3528Y-3.6567
X4.3528Y-3.9567
X4.5528Y-3.6567
X4.5528Y-3.9567
X4.7528Y-3.6567
X4.7528Y-3.9567
X5.0528Y-3.6567
X5.0528Y-3.9567
X2.35Y-4.95
X2.35Y-5.25
X1.4528Y-2.3567
X1.4528Y-2.6567
X1.6528Y-2.3567
X1.6528Y-2.6567
X1.8528Y-2.3567
X1.8528Y-2.6567
X2.1528Y-2.3567
X2.1528Y-2.6567
X7.9Y-1.7713
X7.9Y-1.85
X5.5Y-4.95
X5.5Y-5.05
X8.05Y-3.75
X8.15Y-3.75
X4.3528Y-1.7067
X4.3528Y-2.0067
X4.5528Y-1.7067
X4.5528Y-2.0067
X4.7528Y-1.7067
X4.7528Y-2.0067
X5.0528Y-1.7067
X5.0528Y-2.0067
X8.2213Y-3.55
X8.3Y-3.55
X2.9028Y-4.9567
X2.9028Y-5.2567
X3.1028Y-4.9567
X3.1028Y-5.2567
X3.3028Y-4.9567
X3.3028Y-5.2567
X3.6028Y-4.9567
X3.6028Y-5.2567
X5.25Y-2.35
X5.25Y-2.65
X2.6Y-4.3
X2.6Y-4.4
X5.25Y-1.7
X5.25Y-2.
X5.8028Y-3.6567
X5.8028Y-3.9567
X6.0028Y-3.6567
X6.0028Y-3.9567
X6.2028Y-3.6567
X6.2028Y-3.9567
X6.5028Y-3.6567
X6.5028Y-3.9567
X1.4528Y-3.0067
X1.4528Y-3.3067
X1.6528Y-3.0067
X1.6528Y-3.3067
X1.8528Y-3.0067
X1.8528Y-3.3067
X2.1528Y-3.0067
X2.1528Y-3.3067
X4.3528Y-4.9567
X4.3528Y-5.2567
X4.5528Y-4.9567
X4.5528Y-5.2567
X4.7528Y-4.9567
X4.7528Y-5.2567
X5.0528Y-4.9567
X5.0528Y-5.2567
X3.8Y-4.95
X3.8Y-5.25
T4
X7.95Y-3.05
X8.05Y-3.05
X8.15Y-3.05
X7.3Y-3.05
X7.3Y-3.15
X7.3Y-3.25
X7.3Y-3.35
X7.3Y-3.45
X7.3Y-3.55
X7.3Y-3.65
X7.3Y-3.75
X7.6Y-3.05
X7.6Y-3.15
X7.6Y-3.25
X7.6Y-3.35
X7.6Y-3.45
X7.6Y-3.55
X7.6Y-3.65
X7.6Y-3.75
X8.4Y-2.1
X8.4Y-2.2
X8.4Y-2.3
X8.4Y-2.4
X8.4Y-2.5
X8.4Y-2.6
X8.4Y-2.7
X8.5Y-2.1
X8.5Y-2.2
X8.5Y-2.3
X8.5Y-2.4
X8.5Y-2.5
X8.5Y-2.6
X8.5Y-2.7
X7.3Y-4.35
X7.3Y-4.45
X7.3Y-4.55
X7.3Y-4.65
X7.3Y-4.75
X7.3Y-4.85
X7.3Y-4.95
X7.3Y-5.05
X7.6Y-4.35
X7.6Y-4.45
X7.6Y-4.55
X7.6Y-4.65
X7.6Y-4.75
X7.6Y-4.85
X7.6Y-4.95
X7.6Y-5.05
X7.3Y-1.75
X7.3Y-1.85
X7.3Y-1.95
X7.3Y-2.05
X7.3Y-2.15
X7.3Y-2.25
X7.3Y-2.35
X7.3Y-2.45
X7.6Y-1.75
X7.6Y-1.85
X7.6Y-1.95
X7.6Y-2.05
X7.6Y-2.15
X7.6Y-2.25
X7.6Y-2.35
X7.6Y-2.45
X8.4Y-4.35
X8.4Y-4.45
X8.4Y-4.55
X8.4Y-4.65
X8.4Y-4.75
X8.4Y-4.85
X8.4Y-4.95
X8.5Y-4.35
X8.5Y-4.45
X8.5Y-4.55
X8.5Y-4.65
X8.5Y-4.75
X8.5Y-4.85
X8.5Y-4.95
T5
X1.05Y-2.
X1.05Y-2.2
X1.05Y-2.4
X1.05Y-2.6
X1.05Y-2.8
X1.05Y-3.
X1.25Y-2.1
X1.25Y-2.5
X1.25Y-2.9
X1.05Y-3.95
X1.05Y-4.15
X1.05Y-4.35
X1.05Y-4.55
X1.05Y-4.75
X1.05Y-4.95
X1.25Y-4.05
X1.25Y-4.45
X1.25Y-4.85
T0
M30
