%TF.GenerationSoftware,KiCad,Pcbnew,5.0.2-1.fc29*%
%TF.CreationDate,2018-12-27T16:56:31+02:00*%
%TF.ProjectId,audiorouter-board,61756469-6f72-46f7-9574-65722d626f61,rev?*%
%TF.SameCoordinates,Original*%
%TF.FileFunction,Copper,L2,Bot*%
%TF.FilePolarity,Positive*%
%FSLAX46Y46*%
G04 Gerber Fmt 4.6, Leading zero omitted, Abs format (unit mm)*
G04 Created by KiCad (PCBNEW 5.0.2-1.fc29) date N 27 dets  2018 16:56:31 EET*
%MOMM*%
%LPD*%
G01*
G04 APERTURE LIST*
%ADD10C,1.879600*%
%ADD11R,1.700000X1.700000*%
%ADD12O,1.700000X1.700000*%
%ADD13C,1.500000*%
%ADD14O,1.500000X1.050000*%
%ADD15R,1.500000X1.050000*%
%ADD16O,1.600000X1.600000*%
%ADD17C,1.600000*%
%ADD18R,1.600000X1.600000*%
%ADD19R,2.000000X2.000000*%
%ADD20C,2.000000*%
%ADD21C,0.800000*%
%ADD22C,0.500000*%
%ADD23C,0.250000*%
G04 APERTURE END LIST*
D10*
X26670000Y-76200000D03*
X31750000Y-73660000D03*
X26670000Y-71120000D03*
X26670000Y-66040000D03*
X31750000Y-63500000D03*
X26670000Y-60960000D03*
X26670000Y-55880000D03*
X31750000Y-53340000D03*
X26670000Y-50800000D03*
X26670000Y-125730000D03*
X31750000Y-123190000D03*
X26670000Y-120650000D03*
X26670000Y-115570000D03*
X31750000Y-113030000D03*
X26670000Y-110490000D03*
X26670000Y-105410000D03*
X31750000Y-102870000D03*
X26670000Y-100330000D03*
D11*
X213360000Y-110490000D03*
D12*
X215900000Y-110490000D03*
X213360000Y-113030000D03*
X215900000Y-113030000D03*
X213360000Y-115570000D03*
X215900000Y-115570000D03*
X213360000Y-118110000D03*
X215900000Y-118110000D03*
X213360000Y-120650000D03*
X215900000Y-120650000D03*
X213360000Y-123190000D03*
X215900000Y-123190000D03*
X213360000Y-125730000D03*
X215900000Y-125730000D03*
X215900000Y-68580000D03*
X213360000Y-68580000D03*
X215900000Y-66040000D03*
X213360000Y-66040000D03*
X215900000Y-63500000D03*
X213360000Y-63500000D03*
X215900000Y-60960000D03*
X213360000Y-60960000D03*
X215900000Y-58420000D03*
X213360000Y-58420000D03*
X215900000Y-55880000D03*
X213360000Y-55880000D03*
X215900000Y-53340000D03*
D11*
X213360000Y-53340000D03*
D13*
X36900000Y-92880000D03*
X36900000Y-100500000D03*
X41980000Y-92880000D03*
X41980000Y-100500000D03*
X47060000Y-100500000D03*
X47060000Y-92880000D03*
X54680000Y-92880000D03*
X54680000Y-100500000D03*
X73730000Y-92880000D03*
X73730000Y-100500000D03*
X78810000Y-92880000D03*
X78810000Y-100500000D03*
X83890000Y-100500000D03*
X83890000Y-92880000D03*
X91510000Y-92880000D03*
X91510000Y-100500000D03*
X110560000Y-92880000D03*
X110560000Y-100500000D03*
X115640000Y-92880000D03*
X115640000Y-100500000D03*
X120720000Y-100500000D03*
X120720000Y-92880000D03*
X128340000Y-92880000D03*
X128340000Y-100500000D03*
X165170000Y-100500000D03*
X165170000Y-92880000D03*
X157550000Y-92880000D03*
X157550000Y-100500000D03*
X152470000Y-100500000D03*
X152470000Y-92880000D03*
X147390000Y-100500000D03*
X147390000Y-92880000D03*
X54680000Y-117010000D03*
X54680000Y-109390000D03*
X47060000Y-109390000D03*
X47060000Y-117010000D03*
X41980000Y-117010000D03*
X41980000Y-109390000D03*
X36900000Y-117010000D03*
X36900000Y-109390000D03*
X91510000Y-117010000D03*
X91510000Y-109390000D03*
X83890000Y-109390000D03*
X83890000Y-117010000D03*
X78810000Y-117010000D03*
X78810000Y-109390000D03*
X73730000Y-117010000D03*
X73730000Y-109390000D03*
X110560000Y-109390000D03*
X110560000Y-117010000D03*
X115640000Y-109390000D03*
X115640000Y-117010000D03*
X120720000Y-117010000D03*
X120720000Y-109390000D03*
X128340000Y-109390000D03*
X128340000Y-117010000D03*
X165170000Y-117010000D03*
X165170000Y-109390000D03*
X157550000Y-109390000D03*
X157550000Y-117010000D03*
X152470000Y-117010000D03*
X152470000Y-109390000D03*
X147390000Y-117010000D03*
X147390000Y-109390000D03*
X36900000Y-125900000D03*
X36900000Y-133520000D03*
X41980000Y-125900000D03*
X41980000Y-133520000D03*
X47060000Y-133520000D03*
X47060000Y-125900000D03*
X54680000Y-125900000D03*
X54680000Y-133520000D03*
X91510000Y-133520000D03*
X91510000Y-125900000D03*
X83890000Y-125900000D03*
X83890000Y-133520000D03*
X78810000Y-133520000D03*
X78810000Y-125900000D03*
X73730000Y-133520000D03*
X73730000Y-125900000D03*
X128340000Y-133520000D03*
X128340000Y-125900000D03*
X120720000Y-125900000D03*
X120720000Y-133520000D03*
X115640000Y-133520000D03*
X115640000Y-125900000D03*
X110560000Y-133520000D03*
X110560000Y-125900000D03*
X147390000Y-125900000D03*
X147390000Y-133520000D03*
X152470000Y-125900000D03*
X152470000Y-133520000D03*
X157550000Y-133520000D03*
X157550000Y-125900000D03*
X165170000Y-125900000D03*
X165170000Y-133520000D03*
X36900000Y-43350000D03*
X36900000Y-50970000D03*
X41980000Y-43350000D03*
X41980000Y-50970000D03*
X47060000Y-50970000D03*
X47060000Y-43350000D03*
X54680000Y-43350000D03*
X54680000Y-50970000D03*
X91510000Y-50970000D03*
X91510000Y-43350000D03*
X83890000Y-43350000D03*
X83890000Y-50970000D03*
X78810000Y-50970000D03*
X78810000Y-43350000D03*
X73730000Y-50970000D03*
X73730000Y-43350000D03*
X128340000Y-50970000D03*
X128340000Y-43350000D03*
X120720000Y-43350000D03*
X120720000Y-50970000D03*
X115640000Y-50970000D03*
X115640000Y-43350000D03*
X110560000Y-50970000D03*
X110560000Y-43350000D03*
X147390000Y-43350000D03*
X147390000Y-50970000D03*
X152470000Y-43350000D03*
X152470000Y-50970000D03*
X157550000Y-50970000D03*
X157550000Y-43350000D03*
X165170000Y-43350000D03*
X165170000Y-50970000D03*
X54680000Y-67480000D03*
X54680000Y-59860000D03*
X47060000Y-59860000D03*
X47060000Y-67480000D03*
X41980000Y-67480000D03*
X41980000Y-59860000D03*
X36900000Y-67480000D03*
X36900000Y-59860000D03*
X73730000Y-59860000D03*
X73730000Y-67480000D03*
X78810000Y-59860000D03*
X78810000Y-67480000D03*
X83890000Y-67480000D03*
X83890000Y-59860000D03*
X91510000Y-59860000D03*
X91510000Y-67480000D03*
X128340000Y-67480000D03*
X128340000Y-59860000D03*
X120720000Y-59860000D03*
X120720000Y-67480000D03*
X115640000Y-67480000D03*
X115640000Y-59860000D03*
X110560000Y-67480000D03*
X110560000Y-59860000D03*
X147390000Y-59860000D03*
X147390000Y-67480000D03*
X152470000Y-59860000D03*
X152470000Y-67480000D03*
X157550000Y-67480000D03*
X157550000Y-59860000D03*
X165170000Y-59860000D03*
X165170000Y-67480000D03*
X54680000Y-83990000D03*
X54680000Y-76370000D03*
X47060000Y-76370000D03*
X47060000Y-83990000D03*
X41980000Y-83990000D03*
X41980000Y-76370000D03*
X36900000Y-83990000D03*
X36900000Y-76370000D03*
X91510000Y-83990000D03*
X91510000Y-76370000D03*
X83890000Y-76370000D03*
X83890000Y-83990000D03*
X78810000Y-83990000D03*
X78810000Y-76370000D03*
X73730000Y-83990000D03*
X73730000Y-76370000D03*
X110560000Y-76370000D03*
X110560000Y-83990000D03*
X115640000Y-76370000D03*
X115640000Y-83990000D03*
X120720000Y-83990000D03*
X120720000Y-76370000D03*
X128340000Y-76370000D03*
X128340000Y-83990000D03*
X147390000Y-76370000D03*
X147390000Y-83990000D03*
X152470000Y-76370000D03*
X152470000Y-83990000D03*
X157550000Y-83990000D03*
X157550000Y-76370000D03*
X165170000Y-76370000D03*
X165170000Y-83990000D03*
D14*
X66040000Y-99060000D03*
X66040000Y-100330000D03*
D15*
X66040000Y-97790000D03*
D14*
X102870000Y-99060000D03*
X102870000Y-100330000D03*
D15*
X102870000Y-97790000D03*
X139700000Y-97790000D03*
D14*
X139700000Y-100330000D03*
X139700000Y-99060000D03*
D15*
X176530000Y-97790000D03*
D14*
X176530000Y-100330000D03*
X176530000Y-99060000D03*
X66040000Y-115570000D03*
X66040000Y-116840000D03*
D15*
X66040000Y-114300000D03*
X102870000Y-114300000D03*
D14*
X102870000Y-116840000D03*
X102870000Y-115570000D03*
X139700000Y-115570000D03*
X139700000Y-116840000D03*
D15*
X139700000Y-114300000D03*
X176530000Y-114300000D03*
D14*
X176530000Y-116840000D03*
X176530000Y-115570000D03*
D15*
X66040000Y-130810000D03*
D14*
X66040000Y-133350000D03*
X66040000Y-132080000D03*
D15*
X102870000Y-130810000D03*
D14*
X102870000Y-133350000D03*
X102870000Y-132080000D03*
D15*
X139700000Y-130810000D03*
D14*
X139700000Y-133350000D03*
X139700000Y-132080000D03*
X176530000Y-132080000D03*
X176530000Y-133350000D03*
D15*
X176530000Y-130810000D03*
D14*
X66040000Y-49530000D03*
X66040000Y-50800000D03*
D15*
X66040000Y-48260000D03*
X102870000Y-48260000D03*
D14*
X102870000Y-50800000D03*
X102870000Y-49530000D03*
X139700000Y-49530000D03*
X139700000Y-50800000D03*
D15*
X139700000Y-48260000D03*
D14*
X176530000Y-49530000D03*
X176530000Y-50800000D03*
D15*
X176530000Y-48260000D03*
X66040000Y-64770000D03*
D14*
X66040000Y-67310000D03*
X66040000Y-66040000D03*
D15*
X102870000Y-64770000D03*
D14*
X102870000Y-67310000D03*
X102870000Y-66040000D03*
D15*
X139700000Y-64770000D03*
D14*
X139700000Y-67310000D03*
X139700000Y-66040000D03*
X176530000Y-66040000D03*
X176530000Y-67310000D03*
D15*
X176530000Y-64770000D03*
D14*
X66040000Y-82550000D03*
X66040000Y-83820000D03*
D15*
X66040000Y-81280000D03*
D14*
X102870000Y-82550000D03*
X102870000Y-83820000D03*
D15*
X102870000Y-81280000D03*
X139700000Y-81280000D03*
D14*
X139700000Y-83820000D03*
X139700000Y-82550000D03*
X176530000Y-82550000D03*
X176530000Y-83820000D03*
D15*
X176530000Y-81280000D03*
D16*
X66040000Y-95250000D03*
D17*
X66040000Y-92710000D03*
X102870000Y-92710000D03*
D16*
X102870000Y-95250000D03*
D17*
X139700000Y-92710000D03*
D16*
X139700000Y-95250000D03*
D17*
X176530000Y-92710000D03*
D16*
X176530000Y-95250000D03*
X66040000Y-111760000D03*
D17*
X66040000Y-109220000D03*
D16*
X102870000Y-111760000D03*
D17*
X102870000Y-109220000D03*
X139700000Y-109220000D03*
D16*
X139700000Y-111760000D03*
X176530000Y-111760000D03*
D17*
X176530000Y-109220000D03*
D16*
X66040000Y-128270000D03*
D17*
X66040000Y-125730000D03*
D16*
X102870000Y-128270000D03*
D17*
X102870000Y-125730000D03*
D16*
X139700000Y-128270000D03*
D17*
X139700000Y-125730000D03*
D16*
X176530000Y-128270000D03*
D17*
X176530000Y-125730000D03*
D16*
X66040000Y-45720000D03*
D17*
X66040000Y-43180000D03*
X102870000Y-43180000D03*
D16*
X102870000Y-45720000D03*
X139700000Y-45720000D03*
D17*
X139700000Y-43180000D03*
D16*
X176530000Y-45720000D03*
D17*
X176530000Y-43180000D03*
D16*
X66040000Y-62230000D03*
D17*
X66040000Y-59690000D03*
X102870000Y-59690000D03*
D16*
X102870000Y-62230000D03*
D17*
X139700000Y-59690000D03*
D16*
X139700000Y-62230000D03*
D17*
X176530000Y-59690000D03*
D16*
X176530000Y-62230000D03*
D17*
X66040000Y-76200000D03*
D16*
X66040000Y-78740000D03*
D17*
X102870000Y-76200000D03*
D16*
X102870000Y-78740000D03*
D17*
X139700000Y-76200000D03*
D16*
X139700000Y-78740000D03*
D17*
X176530000Y-76200000D03*
D16*
X176530000Y-78740000D03*
D18*
X193040000Y-128270000D03*
D17*
X193040000Y-125730000D03*
X193040000Y-123190000D03*
X193040000Y-120650000D03*
X193040000Y-118110000D03*
X193040000Y-115570000D03*
X193040000Y-113030000D03*
X185420000Y-113030000D03*
X185420000Y-115570000D03*
X185420000Y-118110000D03*
X185420000Y-120650000D03*
X185420000Y-123190000D03*
X185420000Y-125730000D03*
X185420000Y-128270000D03*
X193040000Y-110490000D03*
X185420000Y-110490000D03*
X185420000Y-77470000D03*
X193040000Y-77470000D03*
X185420000Y-95250000D03*
X185420000Y-92710000D03*
X185420000Y-90170000D03*
X185420000Y-87630000D03*
X185420000Y-85090000D03*
X185420000Y-82550000D03*
X185420000Y-80010000D03*
X193040000Y-80010000D03*
X193040000Y-82550000D03*
X193040000Y-85090000D03*
X193040000Y-87630000D03*
X193040000Y-90170000D03*
X193040000Y-92710000D03*
D18*
X193040000Y-95250000D03*
X193040000Y-62230000D03*
D17*
X193040000Y-59690000D03*
X193040000Y-57150000D03*
X193040000Y-54610000D03*
X193040000Y-52070000D03*
X193040000Y-49530000D03*
X193040000Y-46990000D03*
X185420000Y-46990000D03*
X185420000Y-49530000D03*
X185420000Y-52070000D03*
X185420000Y-54610000D03*
X185420000Y-57150000D03*
X185420000Y-59690000D03*
X185420000Y-62230000D03*
X193040000Y-44450000D03*
X185420000Y-44450000D03*
X198120000Y-105410000D03*
X198120000Y-107410000D03*
X208820000Y-90170000D03*
X210820000Y-90170000D03*
X199390000Y-62230000D03*
X201390000Y-62230000D03*
X200660000Y-126270000D03*
X200660000Y-128270000D03*
X200660000Y-91440000D03*
X200660000Y-89440000D03*
X200660000Y-44990000D03*
X200660000Y-46990000D03*
D14*
X205740000Y-101600000D03*
X205740000Y-100330000D03*
D15*
X205740000Y-102870000D03*
D16*
X207010000Y-107950000D03*
D17*
X204470000Y-107950000D03*
X204470000Y-95250000D03*
D16*
X207010000Y-95250000D03*
D19*
X207010000Y-77470000D03*
D20*
X204470000Y-77470000D03*
X201930000Y-77470000D03*
D18*
X59690000Y-92710000D03*
D16*
X59690000Y-100330000D03*
D18*
X96520000Y-92710000D03*
D16*
X96520000Y-100330000D03*
X133350000Y-100330000D03*
D18*
X133350000Y-92710000D03*
X170180000Y-92710000D03*
D16*
X170180000Y-100330000D03*
X59690000Y-116840000D03*
D18*
X59690000Y-109220000D03*
X96520000Y-109220000D03*
D16*
X96520000Y-116840000D03*
X133350000Y-116840000D03*
D18*
X133350000Y-109220000D03*
X170180000Y-109220000D03*
D16*
X170180000Y-116840000D03*
D18*
X59690000Y-125730000D03*
D16*
X59690000Y-133350000D03*
X96520000Y-133350000D03*
D18*
X96520000Y-125730000D03*
X133350000Y-125730000D03*
D16*
X133350000Y-133350000D03*
X170180000Y-133350000D03*
D18*
X170180000Y-125730000D03*
D16*
X59690000Y-50800000D03*
D18*
X59690000Y-43180000D03*
D16*
X96520000Y-50800000D03*
D18*
X96520000Y-43180000D03*
X133350000Y-43180000D03*
D16*
X133350000Y-50800000D03*
X170180000Y-50800000D03*
D18*
X170180000Y-43180000D03*
X59690000Y-59690000D03*
D16*
X59690000Y-67310000D03*
X96520000Y-67310000D03*
D18*
X96520000Y-59690000D03*
X133350000Y-59690000D03*
D16*
X133350000Y-67310000D03*
X170180000Y-67310000D03*
D18*
X170180000Y-59690000D03*
X59690000Y-76200000D03*
D16*
X59690000Y-83820000D03*
X96520000Y-83820000D03*
D18*
X96520000Y-76200000D03*
X133350000Y-76200000D03*
D16*
X133350000Y-83820000D03*
X170180000Y-83820000D03*
D18*
X170180000Y-76200000D03*
D21*
X91009500Y-107020100D03*
X90634700Y-58352600D03*
X210695800Y-55880000D03*
X216521500Y-107056300D03*
X71607700Y-76873100D03*
X108383700Y-94210500D03*
X209803500Y-58420000D03*
X215297900Y-104350000D03*
X205627900Y-66664800D03*
X217216900Y-77532800D03*
X188178400Y-122534600D03*
X210176900Y-120795600D03*
X208931600Y-63083400D03*
X72602200Y-119738000D03*
X109875500Y-123091400D03*
X144759400Y-114683000D03*
X190807500Y-102430300D03*
X68045900Y-96707700D03*
X100324200Y-77410700D03*
X184506000Y-58420000D03*
X171831600Y-80206800D03*
X180636800Y-55767300D03*
X69648800Y-73432600D03*
X106691600Y-72378400D03*
X144761800Y-73103700D03*
X181286100Y-53340000D03*
X187903200Y-99966000D03*
D22*
X138299700Y-64770000D02*
X138234300Y-64704600D01*
X138234300Y-64704600D02*
X138234300Y-48325400D01*
X138234300Y-48325400D02*
X138299700Y-48260000D01*
X139700000Y-48260000D02*
X138299700Y-48260000D01*
X138299700Y-81280000D02*
X138236700Y-81217000D01*
X138236700Y-81217000D02*
X138236700Y-64833000D01*
X138236700Y-64833000D02*
X138299700Y-64770000D01*
X139700000Y-64770000D02*
X138299700Y-64770000D01*
X138299700Y-97790000D02*
X138246600Y-97736900D01*
X138246600Y-97736900D02*
X138246600Y-81333100D01*
X138246600Y-81333100D02*
X138299700Y-81280000D01*
X139700000Y-81280000D02*
X138299700Y-81280000D01*
X138299700Y-97790000D02*
X138212400Y-97877300D01*
X138212400Y-97877300D02*
X138212400Y-114300000D01*
X138212400Y-114300000D02*
X138212400Y-129322400D01*
X138212400Y-129322400D02*
X139700000Y-130810000D01*
X138212400Y-114300000D02*
X138299700Y-114300000D01*
X139700000Y-114300000D02*
X138299700Y-114300000D01*
X66040000Y-48260000D02*
X64639700Y-48260000D01*
X64639700Y-64770000D02*
X64589100Y-64719400D01*
X64589100Y-64719400D02*
X64589100Y-48310600D01*
X64589100Y-48310600D02*
X64639700Y-48260000D01*
X64839800Y-64770000D02*
X64639700Y-64770000D01*
X66040000Y-64770000D02*
X64839800Y-64770000D01*
X65729800Y-80969800D02*
X66040000Y-81280000D01*
X64589600Y-97790000D02*
X64589600Y-82110000D01*
X64589600Y-82110000D02*
X65729800Y-80969800D01*
X64639700Y-64770000D02*
X64589600Y-64820100D01*
X64589600Y-64820100D02*
X64589600Y-79829600D01*
X64589600Y-79829600D02*
X65729800Y-80969800D01*
X139700000Y-97790000D02*
X138299700Y-97790000D01*
X64589600Y-97790000D02*
X64589600Y-114249900D01*
X64589600Y-114249900D02*
X64639700Y-114300000D01*
X64589600Y-97790000D02*
X64639700Y-97790000D01*
X66040000Y-97790000D02*
X64639700Y-97790000D01*
X66040000Y-114300000D02*
X64939900Y-114300000D01*
X64939900Y-114300000D02*
X64639700Y-114300000D01*
X64639700Y-114300000D02*
X64552400Y-114387300D01*
X64552400Y-114387300D02*
X64552400Y-129322400D01*
X64552400Y-129322400D02*
X66040000Y-130810000D01*
X31750000Y-113030000D02*
X31750000Y-123190000D01*
X31750000Y-102870000D02*
X31750000Y-113030000D01*
X198120000Y-107410000D02*
X195040000Y-110490000D01*
X195040000Y-110490000D02*
X193040000Y-110490000D01*
X200247700Y-109537600D02*
X198120000Y-107410000D01*
X102870000Y-48260000D02*
X101469700Y-48260000D01*
X101469700Y-48260000D02*
X101419600Y-48310100D01*
X101419600Y-48310100D02*
X101419600Y-64719900D01*
X101419600Y-64719900D02*
X101469700Y-64770000D01*
X208465200Y-90170000D02*
X208465200Y-101545100D01*
X208465200Y-101545100D02*
X207140300Y-102870000D01*
X204470000Y-77470000D02*
X204470000Y-65310000D01*
X204470000Y-65310000D02*
X201390000Y-62230000D01*
X31750000Y-73660000D02*
X31750000Y-102870000D01*
X31750000Y-63500000D02*
X31750000Y-73660000D01*
X31750000Y-63500000D02*
X31750000Y-53340000D01*
X208465200Y-90170000D02*
X206597600Y-90170000D01*
X206597600Y-90170000D02*
X203263800Y-86836200D01*
X208820000Y-90170000D02*
X208465200Y-90170000D01*
X203263800Y-86836200D02*
X200660000Y-89440000D01*
X203263800Y-79158900D02*
X203263800Y-86836200D01*
X102529500Y-80939500D02*
X101382400Y-79792400D01*
X101382400Y-79792400D02*
X101382400Y-64857300D01*
X101382400Y-64857300D02*
X101469700Y-64770000D01*
X102870000Y-81280000D02*
X102529500Y-80939500D01*
X102529500Y-80939500D02*
X101405900Y-82063100D01*
X101405900Y-82063100D02*
X101405900Y-97790000D01*
X101405900Y-97790000D02*
X101405900Y-114236200D01*
X101405900Y-114236200D02*
X101469700Y-114300000D01*
X101405900Y-97790000D02*
X101469700Y-97790000D01*
X175033500Y-64770000D02*
X175033500Y-48356200D01*
X175033500Y-48356200D02*
X175129700Y-48260000D01*
X175033500Y-81280000D02*
X175033500Y-64770000D01*
X175033500Y-64770000D02*
X175129700Y-64770000D01*
X176530000Y-48260000D02*
X175129700Y-48260000D01*
X102870000Y-64770000D02*
X101469700Y-64770000D01*
X175033500Y-81280000D02*
X175129700Y-81280000D01*
X175042400Y-97877300D02*
X172772200Y-97877300D01*
X172772200Y-97877300D02*
X168729600Y-93834700D01*
X168729600Y-93834700D02*
X168729600Y-87583900D01*
X168729600Y-87583900D02*
X175033500Y-81280000D01*
X176530000Y-64770000D02*
X175129700Y-64770000D01*
X175042400Y-97877300D02*
X175129700Y-97790000D01*
X176530000Y-114300000D02*
X175042400Y-112812400D01*
X175042400Y-112812400D02*
X175042400Y-97877300D01*
X176530000Y-81280000D02*
X175129700Y-81280000D01*
X102870000Y-97790000D02*
X101469700Y-97790000D01*
X101669800Y-114300000D02*
X101469700Y-114300000D01*
X102870000Y-114300000D02*
X101669800Y-114300000D01*
X176530000Y-97790000D02*
X175129700Y-97790000D01*
X102870000Y-130810000D02*
X101382400Y-129322400D01*
X101382400Y-129322400D02*
X101382400Y-114387300D01*
X101382400Y-114387300D02*
X101469700Y-114300000D01*
X200660000Y-126270000D02*
X200660000Y-110147800D01*
X200660000Y-110147800D02*
X200539400Y-110027200D01*
X200539400Y-110027200D02*
X200539400Y-109829400D01*
X200539400Y-109829400D02*
X200247700Y-109537600D01*
X200247700Y-109537600D02*
X205740000Y-104045300D01*
X205740000Y-102870000D02*
X205740000Y-104045300D01*
X200660000Y-44990000D02*
X200776300Y-44990000D01*
X200776300Y-44990000D02*
X202115500Y-46329200D01*
X202115500Y-46329200D02*
X202115500Y-61504500D01*
X202115500Y-61504500D02*
X201390000Y-62230000D01*
X203263800Y-79158900D02*
X194728900Y-79158900D01*
X194728900Y-79158900D02*
X193040000Y-77470000D01*
X204470000Y-77470000D02*
X204470000Y-77952700D01*
X204470000Y-77952700D02*
X203263800Y-79158900D01*
X205740000Y-102870000D02*
X207140300Y-102870000D01*
X83890000Y-109390000D02*
X88639600Y-109390000D01*
X88639600Y-109390000D02*
X91009500Y-107020100D01*
X83890000Y-59860000D02*
X89127300Y-59860000D01*
X89127300Y-59860000D02*
X90634700Y-58352600D01*
X96520000Y-43180000D02*
X96520000Y-44630300D01*
X96520000Y-59690000D02*
X96520000Y-58239700D01*
X96520000Y-58239700D02*
X97970300Y-56789400D01*
X97970300Y-56789400D02*
X97970300Y-46080600D01*
X97970300Y-46080600D02*
X96520000Y-44630300D01*
X178726500Y-121576500D02*
X185420000Y-128270000D01*
X172883200Y-121576500D02*
X178726500Y-121576500D01*
X178726500Y-121576500D02*
X178726500Y-119723500D01*
X178726500Y-119723500D02*
X185420000Y-113030000D01*
X170180000Y-109220000D02*
X170180000Y-110670300D01*
X172883200Y-121576500D02*
X170180000Y-124279700D01*
X170180000Y-110670300D02*
X172883200Y-113373500D01*
X172883200Y-113373500D02*
X172883200Y-121576500D01*
X170180000Y-125730000D02*
X170180000Y-124279700D01*
X95069700Y-109220000D02*
X94480800Y-109220000D01*
X94480800Y-109220000D02*
X92910400Y-110790400D01*
X96520000Y-109220000D02*
X95069700Y-109220000D01*
X95069700Y-109220000D02*
X95069700Y-92710000D01*
X92942900Y-91962900D02*
X94322600Y-91962900D01*
X94322600Y-91962900D02*
X95069700Y-92710000D01*
X91510000Y-92880000D02*
X92427100Y-91962900D01*
X92427100Y-91962900D02*
X92942900Y-91962900D01*
X92942900Y-91962900D02*
X92942900Y-77802900D01*
X92942900Y-77802900D02*
X91510000Y-76370000D01*
X96520000Y-92710000D02*
X95069700Y-92710000D01*
X92910400Y-110790400D02*
X91510000Y-109390000D01*
X92910400Y-125199800D02*
X92910400Y-110790400D01*
X91510000Y-43350000D02*
X89428000Y-41268000D01*
X89428000Y-41268000D02*
X63052300Y-41268000D01*
X63052300Y-41268000D02*
X61140300Y-43180000D01*
X59690000Y-43180000D02*
X61140300Y-43180000D01*
X197926900Y-63693100D02*
X199390000Y-62230000D01*
X187811000Y-60119900D02*
X191384200Y-63693100D01*
X191384200Y-63693100D02*
X197926900Y-63693100D01*
X201930000Y-77470000D02*
X201930000Y-67696200D01*
X201930000Y-67696200D02*
X197926900Y-63693100D01*
X187811000Y-60119900D02*
X187811000Y-49189600D01*
X187811000Y-49189600D02*
X185611400Y-46990000D01*
X185611400Y-46990000D02*
X185420000Y-46990000D01*
X185420000Y-62230000D02*
X185700900Y-62230000D01*
X185700900Y-62230000D02*
X187811000Y-60119900D01*
X165170000Y-92880000D02*
X166571300Y-94281300D01*
X166571300Y-94281300D02*
X166571300Y-107988700D01*
X166571300Y-107988700D02*
X165170000Y-109390000D01*
X165170000Y-76370000D02*
X166570400Y-77770400D01*
X166570400Y-77770400D02*
X166570400Y-91479600D01*
X166570400Y-91479600D02*
X165170000Y-92880000D01*
X133350000Y-76200000D02*
X133350000Y-74749700D01*
X133350000Y-76200000D02*
X131287700Y-76200000D01*
X131287700Y-76200000D02*
X129740400Y-77747300D01*
X133350000Y-59690000D02*
X133350000Y-61140300D01*
X133350000Y-74749700D02*
X134800300Y-73299400D01*
X134800300Y-73299400D02*
X134800300Y-62590600D01*
X134800300Y-62590600D02*
X133350000Y-61140300D01*
X200660000Y-91440000D02*
X204470000Y-95250000D01*
X171630300Y-43180000D02*
X173099800Y-41710500D01*
X173099800Y-41710500D02*
X180140500Y-41710500D01*
X180140500Y-41710500D02*
X185420000Y-46990000D01*
X129740400Y-77747300D02*
X129717300Y-77747300D01*
X129717300Y-77747300D02*
X128340000Y-76370000D01*
X129740400Y-77747300D02*
X129740400Y-91479600D01*
X129740400Y-91479600D02*
X128340000Y-92880000D01*
X129740400Y-125199800D02*
X131369500Y-125199800D01*
X131369500Y-125199800D02*
X131899700Y-125730000D01*
X128340000Y-125900000D02*
X129040200Y-125199800D01*
X129040200Y-125199800D02*
X129740400Y-125199800D01*
X129740400Y-125199800D02*
X129740400Y-110790400D01*
X129740400Y-110790400D02*
X128340000Y-109390000D01*
X133350000Y-125730000D02*
X131899700Y-125730000D01*
X92910400Y-125199800D02*
X94539500Y-125199800D01*
X94539500Y-125199800D02*
X95069700Y-125730000D01*
X91510000Y-125900000D02*
X92210200Y-125199800D01*
X92210200Y-125199800D02*
X92910400Y-125199800D01*
X96520000Y-125730000D02*
X95069700Y-125730000D01*
X96520000Y-76200000D02*
X96520000Y-74749700D01*
X96520000Y-74749700D02*
X95069700Y-73299400D01*
X95069700Y-73299400D02*
X95069700Y-63419700D01*
X95069700Y-63419700D02*
X91510000Y-59860000D01*
X58239600Y-94885500D02*
X56685500Y-94885500D01*
X56685500Y-94885500D02*
X54680000Y-92880000D01*
X59690000Y-94160300D02*
X58964800Y-94885500D01*
X58964800Y-94885500D02*
X58239600Y-94885500D01*
X58239600Y-94885500D02*
X58239600Y-108358400D01*
X58239600Y-108358400D02*
X58376000Y-108494800D01*
X59690000Y-92710000D02*
X59690000Y-94160300D01*
X58376000Y-108494800D02*
X56080400Y-110790400D01*
X59690000Y-108494800D02*
X58376000Y-108494800D01*
X59690000Y-91984800D02*
X59690000Y-92710000D01*
X59690000Y-91984800D02*
X59690000Y-91259700D01*
X56080400Y-110790400D02*
X56080400Y-124499600D01*
X56080400Y-124499600D02*
X54680000Y-125900000D01*
X54680000Y-109390000D02*
X56080400Y-110790400D01*
X59690000Y-109220000D02*
X59690000Y-108494800D01*
X56374900Y-61554800D02*
X54680000Y-59860000D01*
X57025500Y-74024500D02*
X57025500Y-62205500D01*
X57025500Y-62205500D02*
X56374900Y-61554800D01*
X56374900Y-61554800D02*
X58239700Y-59690000D01*
X59690000Y-59690000D02*
X58239700Y-59690000D01*
X57025500Y-74024500D02*
X54680000Y-76370000D01*
X59690000Y-74749700D02*
X58964800Y-74024500D01*
X58964800Y-74024500D02*
X57025500Y-74024500D01*
X59690000Y-76200000D02*
X59690000Y-77650300D01*
X59690000Y-91259700D02*
X61140300Y-89809400D01*
X61140300Y-89809400D02*
X61140300Y-79100600D01*
X61140300Y-79100600D02*
X59690000Y-77650300D01*
X59690000Y-76200000D02*
X59690000Y-74749700D01*
X200660000Y-128270000D02*
X200752200Y-128270000D01*
X200752200Y-128270000D02*
X204470000Y-124552200D01*
X204470000Y-124552200D02*
X204470000Y-107950000D01*
X170180000Y-59690000D02*
X170180000Y-61140300D01*
X170180000Y-76200000D02*
X170180000Y-74749700D01*
X170180000Y-74749700D02*
X171630300Y-73299400D01*
X171630300Y-73299400D02*
X171630300Y-62590600D01*
X171630300Y-62590600D02*
X170180000Y-61140300D01*
X170180000Y-59690000D02*
X170180000Y-58239700D01*
X170180000Y-58239700D02*
X171630300Y-56789400D01*
X171630300Y-56789400D02*
X171630300Y-43180000D01*
X133350000Y-43180000D02*
X133350000Y-44630300D01*
X133350000Y-59690000D02*
X133350000Y-58239700D01*
X133350000Y-58239700D02*
X134800300Y-56789400D01*
X134800300Y-56789400D02*
X134800300Y-46080600D01*
X134800300Y-46080600D02*
X133350000Y-44630300D01*
X128340000Y-92880000D02*
X129740400Y-94280400D01*
X129740400Y-94280400D02*
X129740400Y-107989600D01*
X129740400Y-107989600D02*
X128340000Y-109390000D01*
X59690000Y-43180000D02*
X59690000Y-44630300D01*
X59690000Y-59690000D02*
X59690000Y-58239700D01*
X59690000Y-58239700D02*
X61140300Y-56789400D01*
X61140300Y-56789400D02*
X61140300Y-46080600D01*
X61140300Y-46080600D02*
X59690000Y-44630300D01*
X170180000Y-43180000D02*
X171630300Y-43180000D01*
X170180000Y-92710000D02*
X171630300Y-92710000D01*
X185420000Y-95250000D02*
X181429700Y-91259700D01*
X181429700Y-91259700D02*
X173080600Y-91259700D01*
X173080600Y-91259700D02*
X171630300Y-92710000D01*
X200660000Y-46990000D02*
X199390000Y-48260000D01*
X199390000Y-48260000D02*
X199390000Y-62230000D01*
X213360000Y-53340000D02*
X211782500Y-54917500D01*
X211782500Y-54917500D02*
X211782500Y-74837800D01*
X211782500Y-74837800D02*
X214973100Y-78028400D01*
X214973100Y-78028400D02*
X214973100Y-103189500D01*
X214973100Y-103189500D02*
X214171100Y-103991500D01*
X214171100Y-103991500D02*
X214171100Y-108178600D01*
X214171100Y-108178600D02*
X213360000Y-108989700D01*
X36900000Y-76370000D02*
X38300400Y-74969600D01*
X38300400Y-74969600D02*
X38300400Y-61260400D01*
X38300400Y-61260400D02*
X36900000Y-59860000D01*
X36900000Y-76370000D02*
X38328700Y-77798700D01*
X38328700Y-77798700D02*
X38328700Y-91451300D01*
X38328700Y-91451300D02*
X36900000Y-92880000D01*
X213360000Y-110490000D02*
X213360000Y-108989700D01*
X36900000Y-92880000D02*
X38322900Y-94302900D01*
X38322900Y-94302900D02*
X38322900Y-107967100D01*
X38322900Y-107967100D02*
X36900000Y-109390000D01*
X36900000Y-109390000D02*
X38300400Y-110790400D01*
X38300400Y-110790400D02*
X38300400Y-124499600D01*
X38300400Y-124499600D02*
X36900000Y-125900000D01*
X36900000Y-43350000D02*
X38328700Y-44778700D01*
X38328700Y-44778700D02*
X38328700Y-58431300D01*
X38328700Y-58431300D02*
X36900000Y-59860000D01*
X36900000Y-50970000D02*
X35496700Y-49566700D01*
X35496700Y-49566700D02*
X35496700Y-42740000D01*
X35496700Y-42740000D02*
X38381300Y-39855400D01*
X38381300Y-39855400D02*
X203915700Y-39855400D01*
X203915700Y-39855400D02*
X215900000Y-51839700D01*
X215900000Y-53340000D02*
X215900000Y-51839700D01*
X36900000Y-67480000D02*
X35438100Y-66018100D01*
X35438100Y-66018100D02*
X35438100Y-52431900D01*
X35438100Y-52431900D02*
X36900000Y-50970000D01*
X36900000Y-67480000D02*
X35499600Y-68880400D01*
X35499600Y-68880400D02*
X35499600Y-82589600D01*
X35499600Y-82589600D02*
X36900000Y-83990000D01*
X36900000Y-83990000D02*
X35478700Y-85411300D01*
X35478700Y-85411300D02*
X35478700Y-99078700D01*
X35478700Y-99078700D02*
X36900000Y-100500000D01*
X215900000Y-108989700D02*
X216073500Y-108989700D01*
X216073500Y-108989700D02*
X220107200Y-104956000D01*
X220107200Y-104956000D02*
X220107200Y-57547200D01*
X220107200Y-57547200D02*
X215900000Y-53340000D01*
X36900000Y-100500000D02*
X35465200Y-101934800D01*
X35465200Y-101934800D02*
X35465200Y-115575200D01*
X35465200Y-115575200D02*
X36900000Y-117010000D01*
X215900000Y-110490000D02*
X215900000Y-108989700D01*
X36900000Y-133520000D02*
X35499600Y-132119600D01*
X35499600Y-132119600D02*
X35499600Y-118410400D01*
X35499600Y-118410400D02*
X36900000Y-117010000D01*
X73730000Y-125900000D02*
X73730000Y-119380400D01*
X73730000Y-119380400D02*
X72329600Y-117980000D01*
X72329600Y-117980000D02*
X72329600Y-110790400D01*
X72329600Y-110790400D02*
X73730000Y-109390000D01*
X73730000Y-76370000D02*
X75130400Y-74969600D01*
X75130400Y-74969600D02*
X75130400Y-61260400D01*
X75130400Y-61260400D02*
X73730000Y-59860000D01*
X73730000Y-92880000D02*
X72329600Y-91479600D01*
X72329600Y-91479600D02*
X72329600Y-77770400D01*
X72329600Y-77770400D02*
X73730000Y-76370000D01*
X73730000Y-92880000D02*
X72329600Y-94280400D01*
X72329600Y-94280400D02*
X72329600Y-107989600D01*
X72329600Y-107989600D02*
X73730000Y-109390000D01*
X210695800Y-55880000D02*
X210882200Y-56066400D01*
X210882200Y-56066400D02*
X210882200Y-75210800D01*
X210882200Y-75210800D02*
X214072800Y-78401400D01*
X214072800Y-78401400D02*
X214072800Y-102816500D01*
X214072800Y-102816500D02*
X213270800Y-103618500D01*
X213270800Y-103618500D02*
X213270800Y-104885500D01*
X213270800Y-104885500D02*
X211859700Y-106296600D01*
X211859700Y-106296600D02*
X211859700Y-113030000D01*
X213360000Y-113030000D02*
X211859700Y-113030000D01*
X73730000Y-43350000D02*
X75158700Y-44778700D01*
X75158700Y-44778700D02*
X75158700Y-58431300D01*
X75158700Y-58431300D02*
X73730000Y-59860000D01*
X75130400Y-132119600D02*
X75130400Y-118410400D01*
X75130400Y-118410400D02*
X73730000Y-117010000D01*
X73730000Y-133520000D02*
X75130400Y-132119600D01*
X75130400Y-132119600D02*
X79083500Y-136072700D01*
X79083500Y-136072700D02*
X207684000Y-136072700D01*
X207684000Y-136072700D02*
X217412600Y-126344100D01*
X217412600Y-126344100D02*
X217412600Y-114542600D01*
X217412600Y-114542600D02*
X215900000Y-113030000D01*
X73730000Y-100500000D02*
X75130400Y-101900400D01*
X75130400Y-101900400D02*
X75130400Y-115609600D01*
X75130400Y-115609600D02*
X73730000Y-117010000D01*
X73730000Y-83990000D02*
X75130400Y-85390400D01*
X75130400Y-85390400D02*
X75130400Y-99099600D01*
X75130400Y-99099600D02*
X73730000Y-100500000D01*
X73730000Y-67480000D02*
X71607700Y-69602300D01*
X71607700Y-69602300D02*
X71607700Y-76873100D01*
X216521500Y-107056300D02*
X219206900Y-104370900D01*
X219206900Y-104370900D02*
X219206900Y-59186900D01*
X219206900Y-59186900D02*
X215900000Y-55880000D01*
X73730000Y-50970000D02*
X72327400Y-52372600D01*
X72327400Y-52372600D02*
X72327400Y-66077400D01*
X72327400Y-66077400D02*
X73730000Y-67480000D01*
X110560000Y-43350000D02*
X113154200Y-40755800D01*
X113154200Y-40755800D02*
X199443600Y-40755800D01*
X199443600Y-40755800D02*
X209244400Y-50556600D01*
X209244400Y-50556600D02*
X209244400Y-57860900D01*
X209244400Y-57860900D02*
X209803500Y-58420000D01*
X209803500Y-58420000D02*
X209981900Y-58598400D01*
X209981900Y-58598400D02*
X209981900Y-75583800D01*
X209981900Y-75583800D02*
X213172500Y-78774400D01*
X213172500Y-78774400D02*
X213172500Y-102443500D01*
X213172500Y-102443500D02*
X212370500Y-103245500D01*
X212370500Y-103245500D02*
X212370500Y-104062200D01*
X212370500Y-104062200D02*
X210932500Y-105500200D01*
X210932500Y-105500200D02*
X210932500Y-113386300D01*
X210932500Y-113386300D02*
X213116200Y-115570000D01*
X213116200Y-115570000D02*
X213360000Y-115570000D01*
X110560000Y-59860000D02*
X109135500Y-58435500D01*
X109135500Y-58435500D02*
X109135500Y-44774500D01*
X109135500Y-44774500D02*
X110560000Y-43350000D01*
X110560000Y-109390000D02*
X108383700Y-107213700D01*
X108383700Y-107213700D02*
X108383700Y-94210500D01*
X108383700Y-94210500D02*
X108259200Y-94086000D01*
X108259200Y-94086000D02*
X108259200Y-78670800D01*
X108259200Y-78670800D02*
X110560000Y-76370000D01*
X110560000Y-59860000D02*
X109154800Y-61265200D01*
X109154800Y-61265200D02*
X109154800Y-74964800D01*
X109154800Y-74964800D02*
X110560000Y-76370000D01*
X110560000Y-109390000D02*
X111988700Y-110818700D01*
X111988700Y-110818700D02*
X111988700Y-124471300D01*
X111988700Y-124471300D02*
X110560000Y-125900000D01*
X215297900Y-104350000D02*
X218306600Y-101341300D01*
X218306600Y-101341300D02*
X218306600Y-60826600D01*
X218306600Y-60826600D02*
X215900000Y-58420000D01*
X110560000Y-127306000D02*
X109967200Y-127306000D01*
X109967200Y-127306000D02*
X109118200Y-126457000D01*
X109118200Y-126457000D02*
X109118200Y-125334100D01*
X109118200Y-125334100D02*
X110925800Y-123526500D01*
X110925800Y-123526500D02*
X110925800Y-117375800D01*
X110925800Y-117375800D02*
X110560000Y-117010000D01*
X110560000Y-100500000D02*
X110560000Y-94901400D01*
X110560000Y-94901400D02*
X109159600Y-93501000D01*
X109159600Y-93501000D02*
X109159600Y-85390400D01*
X109159600Y-85390400D02*
X110560000Y-83990000D01*
X110560000Y-100500000D02*
X112896300Y-102836300D01*
X112896300Y-102836300D02*
X112896300Y-125553900D01*
X112896300Y-125553900D02*
X111144200Y-127306000D01*
X111144200Y-127306000D02*
X110560000Y-127306000D01*
X110560000Y-127306000D02*
X110560000Y-133520000D01*
X110560000Y-67480000D02*
X111978700Y-68898700D01*
X111978700Y-68898700D02*
X111978700Y-82571300D01*
X111978700Y-82571300D02*
X110560000Y-83990000D01*
X110560000Y-50970000D02*
X111988700Y-52398700D01*
X111988700Y-52398700D02*
X111988700Y-66051300D01*
X111988700Y-66051300D02*
X110560000Y-67480000D01*
X205627900Y-66664800D02*
X205627900Y-72503100D01*
X205627900Y-72503100D02*
X212272200Y-79147400D01*
X212272200Y-79147400D02*
X212272200Y-102070500D01*
X212272200Y-102070500D02*
X211470200Y-102872500D01*
X211470200Y-102872500D02*
X211470200Y-103689200D01*
X211470200Y-103689200D02*
X210032200Y-105127200D01*
X210032200Y-105127200D02*
X210032200Y-114782200D01*
X210032200Y-114782200D02*
X213360000Y-118110000D01*
X147390000Y-76370000D02*
X145989600Y-74969600D01*
X145989600Y-74969600D02*
X145989600Y-61260400D01*
X145989600Y-61260400D02*
X147390000Y-59860000D01*
X147390000Y-76370000D02*
X145984800Y-77775200D01*
X145984800Y-77775200D02*
X145984800Y-91474800D01*
X145984800Y-91474800D02*
X147390000Y-92880000D01*
X147390000Y-109390000D02*
X145989600Y-107989600D01*
X145989600Y-107989600D02*
X145989600Y-94280400D01*
X145989600Y-94280400D02*
X147390000Y-92880000D01*
X147390000Y-109390000D02*
X145984800Y-110795200D01*
X145984800Y-110795200D02*
X145984800Y-124494800D01*
X145984800Y-124494800D02*
X147390000Y-125900000D01*
X147390000Y-43350000D02*
X145984800Y-44755200D01*
X145984800Y-44755200D02*
X145984800Y-58454800D01*
X145984800Y-58454800D02*
X147390000Y-59860000D01*
X147390000Y-100500000D02*
X148790400Y-99099600D01*
X148790400Y-99099600D02*
X148790400Y-85390400D01*
X148790400Y-85390400D02*
X147390000Y-83990000D01*
X147390000Y-100500000D02*
X148808700Y-101918700D01*
X148808700Y-101918700D02*
X148808700Y-115591300D01*
X148808700Y-115591300D02*
X147390000Y-117010000D01*
X217216900Y-77532800D02*
X217406300Y-77343400D01*
X217406300Y-77343400D02*
X217406300Y-62466300D01*
X217406300Y-62466300D02*
X215900000Y-60960000D01*
X147390000Y-50970000D02*
X148818700Y-52398700D01*
X148818700Y-52398700D02*
X148818700Y-66051300D01*
X148818700Y-66051300D02*
X147390000Y-67480000D01*
X147390000Y-83990000D02*
X148818700Y-82561300D01*
X148818700Y-82561300D02*
X148818700Y-68908700D01*
X148818700Y-68908700D02*
X147390000Y-67480000D01*
X147390000Y-117010000D02*
X148808700Y-118428700D01*
X148808700Y-118428700D02*
X148808700Y-132101300D01*
X148808700Y-132101300D02*
X147390000Y-133520000D01*
D23*
X185420000Y-118110000D02*
X188178400Y-120868400D01*
X188178400Y-120868400D02*
X188178400Y-122534600D01*
X185420000Y-118110000D02*
X188628500Y-114901500D01*
X188628500Y-114901500D02*
X188628500Y-84147900D01*
X188628500Y-84147900D02*
X185902300Y-81421700D01*
X185902300Y-81421700D02*
X184901200Y-81421700D01*
X185420000Y-85090000D02*
X184229200Y-83899200D01*
X184229200Y-83899200D02*
X184229200Y-82093700D01*
X184229200Y-82093700D02*
X184901200Y-81421700D01*
X184901200Y-81421700D02*
X182722100Y-79242600D01*
X182722100Y-79242600D02*
X182722100Y-58254700D01*
X182722100Y-58254700D02*
X185096800Y-55880000D01*
X185096800Y-55880000D02*
X185760800Y-55880000D01*
X185760800Y-55880000D02*
X186568000Y-55072800D01*
X186568000Y-55072800D02*
X186568000Y-53218000D01*
X186568000Y-53218000D02*
X185420000Y-52070000D01*
X213360000Y-123190000D02*
X212184700Y-123190000D01*
X210176900Y-120795600D02*
X212184700Y-122803400D01*
X212184700Y-122803400D02*
X212184700Y-123190000D01*
X185912800Y-88766400D02*
X187655700Y-90509300D01*
X187655700Y-90509300D02*
X187655700Y-99187800D01*
X187655700Y-99187800D02*
X186786900Y-100056600D01*
X186786900Y-100056600D02*
X186786900Y-114203100D01*
X186786900Y-114203100D02*
X185420000Y-115570000D01*
X185420000Y-49530000D02*
X182011400Y-52938600D01*
X182011400Y-52938600D02*
X182011400Y-56744800D01*
X182011400Y-56744800D02*
X181796500Y-56959700D01*
X181796500Y-56959700D02*
X181796500Y-85635300D01*
X181796500Y-85635300D02*
X184927600Y-88766400D01*
X184927600Y-88766400D02*
X185912800Y-88766400D01*
X185912800Y-88766400D02*
X186546500Y-88132700D01*
X186546500Y-88132700D02*
X186546500Y-83676500D01*
X186546500Y-83676500D02*
X185420000Y-82550000D01*
X185420000Y-44450000D02*
X186765300Y-43104700D01*
X186765300Y-43104700D02*
X200695900Y-43104700D01*
X200695900Y-43104700D02*
X208469000Y-50877800D01*
X208469000Y-50877800D02*
X208469000Y-62620800D01*
X208469000Y-62620800D02*
X208931600Y-63083400D01*
X66040000Y-99060000D02*
X67115300Y-99060000D01*
X66040000Y-95250000D02*
X66040000Y-96375300D01*
X66040000Y-96375300D02*
X66655400Y-96375300D01*
X66655400Y-96375300D02*
X67315400Y-97035300D01*
X67315400Y-97035300D02*
X67315400Y-98859900D01*
X67315400Y-98859900D02*
X67115300Y-99060000D01*
X102870000Y-99060000D02*
X103945300Y-99060000D01*
X102870000Y-95250000D02*
X102870000Y-96375300D01*
X102870000Y-96375300D02*
X103485400Y-96375300D01*
X103485400Y-96375300D02*
X104145400Y-97035300D01*
X104145400Y-97035300D02*
X104145400Y-98859900D01*
X104145400Y-98859900D02*
X103945300Y-99060000D01*
X139700000Y-99060000D02*
X140775300Y-99060000D01*
X139700000Y-95250000D02*
X139700000Y-96375300D01*
X139700000Y-96375300D02*
X140315400Y-96375300D01*
X140315400Y-96375300D02*
X140975400Y-97035300D01*
X140975400Y-97035300D02*
X140975400Y-98859900D01*
X140975400Y-98859900D02*
X140775300Y-99060000D01*
X176530000Y-99060000D02*
X177605300Y-99060000D01*
X176530000Y-95250000D02*
X176530000Y-96375300D01*
X176530000Y-96375300D02*
X177145400Y-96375300D01*
X177145400Y-96375300D02*
X177805400Y-97035300D01*
X177805400Y-97035300D02*
X177805400Y-98859900D01*
X177805400Y-98859900D02*
X177605300Y-99060000D01*
X66040000Y-115570000D02*
X67115300Y-115570000D01*
X66040000Y-111760000D02*
X66040000Y-112885300D01*
X66040000Y-112885300D02*
X66655400Y-112885300D01*
X66655400Y-112885300D02*
X67315400Y-113545300D01*
X67315400Y-113545300D02*
X67315400Y-115369900D01*
X67315400Y-115369900D02*
X67115300Y-115570000D01*
X102870000Y-115570000D02*
X103945300Y-115570000D01*
X102870000Y-111760000D02*
X102870000Y-112885300D01*
X102870000Y-112885300D02*
X103485400Y-112885300D01*
X103485400Y-112885300D02*
X104145400Y-113545300D01*
X104145400Y-113545300D02*
X104145400Y-115369900D01*
X104145400Y-115369900D02*
X103945300Y-115570000D01*
X139700000Y-115570000D02*
X140775300Y-115570000D01*
X139700000Y-111760000D02*
X139700000Y-112885300D01*
X139700000Y-112885300D02*
X140315400Y-112885300D01*
X140315400Y-112885300D02*
X140975400Y-113545300D01*
X140975400Y-113545300D02*
X140975400Y-115369900D01*
X140975400Y-115369900D02*
X140775300Y-115570000D01*
X176530000Y-115570000D02*
X177605300Y-115570000D01*
X176530000Y-111760000D02*
X176530000Y-112885300D01*
X176530000Y-112885300D02*
X177145400Y-112885300D01*
X177145400Y-112885300D02*
X177805400Y-113545300D01*
X177805400Y-113545300D02*
X177805400Y-115369900D01*
X177805400Y-115369900D02*
X177605300Y-115570000D01*
X66040000Y-132080000D02*
X67115300Y-132080000D01*
X66040000Y-128270000D02*
X66040000Y-129395300D01*
X66040000Y-129395300D02*
X66655400Y-129395300D01*
X66655400Y-129395300D02*
X67315400Y-130055300D01*
X67315400Y-130055300D02*
X67315400Y-131879900D01*
X67315400Y-131879900D02*
X67115300Y-132080000D01*
X102870000Y-132080000D02*
X103945300Y-132080000D01*
X102870000Y-128270000D02*
X102870000Y-129395300D01*
X102870000Y-129395300D02*
X103485400Y-129395300D01*
X103485400Y-129395300D02*
X104163400Y-130073300D01*
X104163400Y-130073300D02*
X104163400Y-131861900D01*
X104163400Y-131861900D02*
X103945300Y-132080000D01*
X139700000Y-132080000D02*
X140775300Y-132080000D01*
X139700000Y-128270000D02*
X139700000Y-129395300D01*
X139700000Y-129395300D02*
X140310700Y-129395300D01*
X140310700Y-129395300D02*
X140975400Y-130060000D01*
X140975400Y-130060000D02*
X140975400Y-131879900D01*
X140975400Y-131879900D02*
X140775300Y-132080000D01*
X176530000Y-132080000D02*
X175454700Y-132080000D01*
X176530000Y-128270000D02*
X176530000Y-129395300D01*
X176530000Y-129395300D02*
X175914600Y-129395300D01*
X175914600Y-129395300D02*
X175254600Y-130055300D01*
X175254600Y-130055300D02*
X175254600Y-131879900D01*
X175254600Y-131879900D02*
X175454700Y-132080000D01*
X66040000Y-49530000D02*
X67115300Y-49530000D01*
X66040000Y-45720000D02*
X66040000Y-46845300D01*
X66040000Y-46845300D02*
X66655400Y-46845300D01*
X66655400Y-46845300D02*
X67315400Y-47505300D01*
X67315400Y-47505300D02*
X67315400Y-49329900D01*
X67315400Y-49329900D02*
X67115300Y-49530000D01*
X102870000Y-49530000D02*
X103945300Y-49530000D01*
X102870000Y-45720000D02*
X102870000Y-46845300D01*
X102870000Y-46845300D02*
X103485400Y-46845300D01*
X103485400Y-46845300D02*
X104145400Y-47505300D01*
X104145400Y-47505300D02*
X104145400Y-49329900D01*
X104145400Y-49329900D02*
X103945300Y-49530000D01*
X139700000Y-49530000D02*
X140775300Y-49530000D01*
X139700000Y-45720000D02*
X139700000Y-46845300D01*
X139700000Y-46845300D02*
X140315400Y-46845300D01*
X140315400Y-46845300D02*
X140975400Y-47505300D01*
X140975400Y-47505300D02*
X140975400Y-49329900D01*
X140975400Y-49329900D02*
X140775300Y-49530000D01*
X176530000Y-49530000D02*
X177605300Y-49530000D01*
X176530000Y-45720000D02*
X176530000Y-46845300D01*
X176530000Y-46845300D02*
X177145400Y-46845300D01*
X177145400Y-46845300D02*
X177805400Y-47505300D01*
X177805400Y-47505300D02*
X177805400Y-49329900D01*
X177805400Y-49329900D02*
X177605300Y-49530000D01*
X66040000Y-66040000D02*
X67115300Y-66040000D01*
X66040000Y-62230000D02*
X66040000Y-63355300D01*
X66040000Y-63355300D02*
X66655400Y-63355300D01*
X66655400Y-63355300D02*
X67315400Y-64015300D01*
X67315400Y-64015300D02*
X67315400Y-65839900D01*
X67315400Y-65839900D02*
X67115300Y-66040000D01*
X102870000Y-66040000D02*
X103945300Y-66040000D01*
X102870000Y-62230000D02*
X102870000Y-63355300D01*
X102870000Y-63355300D02*
X103485400Y-63355300D01*
X103485400Y-63355300D02*
X104145400Y-64015300D01*
X104145400Y-64015300D02*
X104145400Y-65839900D01*
X104145400Y-65839900D02*
X103945300Y-66040000D01*
X139700000Y-66040000D02*
X140775300Y-66040000D01*
X139700000Y-62230000D02*
X139700000Y-63355300D01*
X139700000Y-63355300D02*
X140315400Y-63355300D01*
X140315400Y-63355300D02*
X140975400Y-64015300D01*
X140975400Y-64015300D02*
X140975400Y-65839900D01*
X140975400Y-65839900D02*
X140775300Y-66040000D01*
X176530000Y-66040000D02*
X177605300Y-66040000D01*
X176530000Y-62230000D02*
X176530000Y-63355300D01*
X176530000Y-63355300D02*
X177145400Y-63355300D01*
X177145400Y-63355300D02*
X177805400Y-64015300D01*
X177805400Y-64015300D02*
X177805400Y-65839900D01*
X177805400Y-65839900D02*
X177605300Y-66040000D01*
X66040000Y-82550000D02*
X67115300Y-82550000D01*
X66040000Y-78740000D02*
X66040000Y-79865300D01*
X66040000Y-79865300D02*
X66655400Y-79865300D01*
X66655400Y-79865300D02*
X67315400Y-80525300D01*
X67315400Y-80525300D02*
X67315400Y-82349900D01*
X67315400Y-82349900D02*
X67115300Y-82550000D01*
X102870000Y-82550000D02*
X103945300Y-82550000D01*
X102870000Y-78740000D02*
X102870000Y-79865300D01*
X102870000Y-79865300D02*
X103485400Y-79865300D01*
X103485400Y-79865300D02*
X104145400Y-80525300D01*
X104145400Y-80525300D02*
X104145400Y-82349900D01*
X104145400Y-82349900D02*
X103945300Y-82550000D01*
X139700000Y-82550000D02*
X140775300Y-82550000D01*
X139700000Y-78740000D02*
X139700000Y-79865300D01*
X139700000Y-79865300D02*
X140315400Y-79865300D01*
X140315400Y-79865300D02*
X140975400Y-80525300D01*
X140975400Y-80525300D02*
X140975400Y-82349900D01*
X140975400Y-82349900D02*
X140775300Y-82550000D01*
X176530000Y-82550000D02*
X177605300Y-82550000D01*
X176530000Y-78740000D02*
X176530000Y-79865300D01*
X176530000Y-79865300D02*
X177145400Y-79865300D01*
X177145400Y-79865300D02*
X177805400Y-80525300D01*
X177805400Y-80525300D02*
X177805400Y-82349900D01*
X177805400Y-82349900D02*
X177605300Y-82550000D01*
X72602200Y-119738000D02*
X68771200Y-115907000D01*
X68771200Y-115907000D02*
X68771200Y-95441200D01*
X68771200Y-95441200D02*
X66040000Y-92710000D01*
X109875500Y-123091400D02*
X105463300Y-118679200D01*
X105463300Y-118679200D02*
X105463300Y-95303300D01*
X105463300Y-95303300D02*
X102870000Y-92710000D01*
X144759400Y-114683000D02*
X144759400Y-97769400D01*
X144759400Y-97769400D02*
X139700000Y-92710000D01*
X193040000Y-123190000D02*
X190807500Y-120957500D01*
X190807500Y-120957500D02*
X190807500Y-102430300D01*
X66040000Y-125730000D02*
X68045900Y-123724100D01*
X68045900Y-123724100D02*
X68045900Y-96707700D01*
X102870000Y-125730000D02*
X104284600Y-127144600D01*
X104284600Y-127144600D02*
X104284600Y-129099900D01*
X104284600Y-129099900D02*
X110482100Y-135297400D01*
X110482100Y-135297400D02*
X181574500Y-135297400D01*
X181574500Y-135297400D02*
X190038700Y-126833200D01*
X190038700Y-126833200D02*
X190038700Y-99376600D01*
X190038700Y-99376600D02*
X193040000Y-96375300D01*
X193040000Y-95250000D02*
X193040000Y-96375300D01*
X139700000Y-125730000D02*
X141114600Y-127144600D01*
X141114600Y-127144600D02*
X141114600Y-129104500D01*
X141114600Y-129104500D02*
X146819600Y-134809500D01*
X146819600Y-134809500D02*
X181425500Y-134809500D01*
X181425500Y-134809500D02*
X189588300Y-126646700D01*
X189588300Y-126646700D02*
X189588300Y-96161700D01*
X189588300Y-96161700D02*
X193040000Y-92710000D01*
X193040000Y-90170000D02*
X189137900Y-94072100D01*
X189137900Y-94072100D02*
X189137900Y-126460200D01*
X189137900Y-126460200D02*
X185992600Y-129605500D01*
X185992600Y-129605500D02*
X180405500Y-129605500D01*
X180405500Y-129605500D02*
X176530000Y-125730000D01*
X66040000Y-43180000D02*
X67173600Y-42046400D01*
X67173600Y-42046400D02*
X74260400Y-42046400D01*
X74260400Y-42046400D02*
X77168100Y-44954100D01*
X77168100Y-44954100D02*
X79718300Y-44954100D01*
X79718300Y-44954100D02*
X86774600Y-52010400D01*
X86774600Y-52010400D02*
X86774600Y-53001200D01*
X86774600Y-53001200D02*
X100324200Y-66550800D01*
X100324200Y-66550800D02*
X100324200Y-77410700D01*
X193040000Y-85090000D02*
X190275300Y-82325300D01*
X190275300Y-82325300D02*
X190275300Y-70566400D01*
X190275300Y-70566400D02*
X183637400Y-63928500D01*
X183637400Y-63928500D02*
X183637400Y-59288600D01*
X183637400Y-59288600D02*
X184506000Y-58420000D01*
X139700000Y-43180000D02*
X140827500Y-42052500D01*
X140827500Y-42052500D02*
X147896200Y-42052500D01*
X147896200Y-42052500D02*
X149160900Y-43317200D01*
X149160900Y-43317200D02*
X149160900Y-44897400D01*
X149160900Y-44897400D02*
X159674100Y-55410600D01*
X159674100Y-55410600D02*
X159674100Y-68049300D01*
X159674100Y-68049300D02*
X171831600Y-80206800D01*
X193040000Y-80010000D02*
X191714700Y-78684700D01*
X191714700Y-78684700D02*
X191714700Y-71368900D01*
X191714700Y-71368900D02*
X184087700Y-63741900D01*
X184087700Y-63741900D02*
X184087700Y-61680800D01*
X184087700Y-61680800D02*
X184949900Y-60818600D01*
X184949900Y-60818600D02*
X185947100Y-60818600D01*
X185947100Y-60818600D02*
X187018400Y-59747300D01*
X187018400Y-59747300D02*
X187018400Y-49528900D01*
X187018400Y-49528900D02*
X185890900Y-48401400D01*
X185890900Y-48401400D02*
X181751400Y-48401400D01*
X181751400Y-48401400D02*
X176530000Y-43180000D01*
X176530000Y-59690000D02*
X176714100Y-59690000D01*
X176714100Y-59690000D02*
X180636800Y-55767300D01*
X69648800Y-73432600D02*
X68807400Y-73432600D01*
X68807400Y-73432600D02*
X66040000Y-76200000D01*
X102870000Y-76200000D02*
X106691600Y-72378400D01*
X144761800Y-73103700D02*
X142796300Y-73103700D01*
X142796300Y-73103700D02*
X139700000Y-76200000D01*
X176530000Y-76200000D02*
X181131500Y-71598500D01*
X181131500Y-71598500D02*
X181131500Y-56987800D01*
X181131500Y-56987800D02*
X181362200Y-56757100D01*
X181362200Y-56757100D02*
X181362200Y-53416100D01*
X181362200Y-53416100D02*
X181286100Y-53340000D01*
X185420000Y-110490000D02*
X185420000Y-97769800D01*
X185420000Y-97769800D02*
X187205400Y-95984400D01*
X187205400Y-95984400D02*
X187205400Y-91955400D01*
X187205400Y-91955400D02*
X185420000Y-90170000D01*
X185420000Y-77470000D02*
X183187100Y-75237100D01*
X183187100Y-75237100D02*
X183187100Y-58713200D01*
X183187100Y-58713200D02*
X184750300Y-57150000D01*
X184750300Y-57150000D02*
X185420000Y-57150000D01*
X198120000Y-105410000D02*
X201930000Y-101600000D01*
X201930000Y-101600000D02*
X205740000Y-101600000D01*
D22*
X210820000Y-90170000D02*
X210569900Y-90420100D01*
X210569900Y-90420100D02*
X210569900Y-103316200D01*
X210569900Y-103316200D02*
X209126600Y-104759500D01*
X209126600Y-104759500D02*
X209126600Y-121496600D01*
X209126600Y-121496600D02*
X213360000Y-125730000D01*
X207010000Y-77470000D02*
X207010000Y-79120300D01*
X207010000Y-79120300D02*
X210820000Y-82930300D01*
X210820000Y-82930300D02*
X210820000Y-90170000D01*
D23*
X187903200Y-99966000D02*
X187903200Y-114679900D01*
X187903200Y-114679900D02*
X185743100Y-116840000D01*
X185743100Y-116840000D02*
X185098200Y-116840000D01*
X185098200Y-116840000D02*
X184278600Y-117659600D01*
X184278600Y-117659600D02*
X184278600Y-119508600D01*
X184278600Y-119508600D02*
X185420000Y-120650000D01*
X185420000Y-54610000D02*
X182257100Y-57772900D01*
X182257100Y-57772900D02*
X182257100Y-84467100D01*
X182257100Y-84467100D02*
X185420000Y-87630000D01*
M02*
