%TF.GenerationSoftware,KiCad,Pcbnew,5.0.2-1.fc29*%
%TF.CreationDate,2018-12-27T16:56:31+02:00*%
%TF.ProjectId,audiorouter-board,61756469-6f72-46f7-9574-65722d626f61,rev?*%
%TF.SameCoordinates,Original*%
%TF.FileFunction,Copper,L1,Top*%
%TF.FilePolarity,Positive*%
%FSLAX46Y46*%
G04 Gerber Fmt 4.6, Leading zero omitted, Abs format (unit mm)*
G04 Created by KiCad (PCBNEW 5.0.2-1.fc29) date N 27 dets  2018 16:56:31 EET*
%MOMM*%
%LPD*%
G01*
G04 APERTURE LIST*
%ADD10C,1.879600*%
%ADD11R,1.700000X1.700000*%
%ADD12O,1.700000X1.700000*%
%ADD13C,1.500000*%
%ADD14O,1.500000X1.050000*%
%ADD15R,1.500000X1.050000*%
%ADD16O,1.600000X1.600000*%
%ADD17C,1.600000*%
%ADD18R,1.600000X1.600000*%
%ADD19R,2.000000X2.000000*%
%ADD20C,2.000000*%
%ADD21C,0.800000*%
%ADD22C,0.500000*%
%ADD23C,0.250000*%
G04 APERTURE END LIST*
D10*
X26670000Y-76200000D03*
X31750000Y-73660000D03*
X26670000Y-71120000D03*
X26670000Y-66040000D03*
X31750000Y-63500000D03*
X26670000Y-60960000D03*
X26670000Y-55880000D03*
X31750000Y-53340000D03*
X26670000Y-50800000D03*
X26670000Y-125730000D03*
X31750000Y-123190000D03*
X26670000Y-120650000D03*
X26670000Y-115570000D03*
X31750000Y-113030000D03*
X26670000Y-110490000D03*
X26670000Y-105410000D03*
X31750000Y-102870000D03*
X26670000Y-100330000D03*
D11*
X213360000Y-110490000D03*
D12*
X215900000Y-110490000D03*
X213360000Y-113030000D03*
X215900000Y-113030000D03*
X213360000Y-115570000D03*
X215900000Y-115570000D03*
X213360000Y-118110000D03*
X215900000Y-118110000D03*
X213360000Y-120650000D03*
X215900000Y-120650000D03*
X213360000Y-123190000D03*
X215900000Y-123190000D03*
X213360000Y-125730000D03*
X215900000Y-125730000D03*
X215900000Y-68580000D03*
X213360000Y-68580000D03*
X215900000Y-66040000D03*
X213360000Y-66040000D03*
X215900000Y-63500000D03*
X213360000Y-63500000D03*
X215900000Y-60960000D03*
X213360000Y-60960000D03*
X215900000Y-58420000D03*
X213360000Y-58420000D03*
X215900000Y-55880000D03*
X213360000Y-55880000D03*
X215900000Y-53340000D03*
D11*
X213360000Y-53340000D03*
D13*
X36900000Y-92880000D03*
X36900000Y-100500000D03*
X41980000Y-92880000D03*
X41980000Y-100500000D03*
X47060000Y-100500000D03*
X47060000Y-92880000D03*
X54680000Y-92880000D03*
X54680000Y-100500000D03*
X73730000Y-92880000D03*
X73730000Y-100500000D03*
X78810000Y-92880000D03*
X78810000Y-100500000D03*
X83890000Y-100500000D03*
X83890000Y-92880000D03*
X91510000Y-92880000D03*
X91510000Y-100500000D03*
X110560000Y-92880000D03*
X110560000Y-100500000D03*
X115640000Y-92880000D03*
X115640000Y-100500000D03*
X120720000Y-100500000D03*
X120720000Y-92880000D03*
X128340000Y-92880000D03*
X128340000Y-100500000D03*
X165170000Y-100500000D03*
X165170000Y-92880000D03*
X157550000Y-92880000D03*
X157550000Y-100500000D03*
X152470000Y-100500000D03*
X152470000Y-92880000D03*
X147390000Y-100500000D03*
X147390000Y-92880000D03*
X54680000Y-117010000D03*
X54680000Y-109390000D03*
X47060000Y-109390000D03*
X47060000Y-117010000D03*
X41980000Y-117010000D03*
X41980000Y-109390000D03*
X36900000Y-117010000D03*
X36900000Y-109390000D03*
X91510000Y-117010000D03*
X91510000Y-109390000D03*
X83890000Y-109390000D03*
X83890000Y-117010000D03*
X78810000Y-117010000D03*
X78810000Y-109390000D03*
X73730000Y-117010000D03*
X73730000Y-109390000D03*
X110560000Y-109390000D03*
X110560000Y-117010000D03*
X115640000Y-109390000D03*
X115640000Y-117010000D03*
X120720000Y-117010000D03*
X120720000Y-109390000D03*
X128340000Y-109390000D03*
X128340000Y-117010000D03*
X165170000Y-117010000D03*
X165170000Y-109390000D03*
X157550000Y-109390000D03*
X157550000Y-117010000D03*
X152470000Y-117010000D03*
X152470000Y-109390000D03*
X147390000Y-117010000D03*
X147390000Y-109390000D03*
X36900000Y-125900000D03*
X36900000Y-133520000D03*
X41980000Y-125900000D03*
X41980000Y-133520000D03*
X47060000Y-133520000D03*
X47060000Y-125900000D03*
X54680000Y-125900000D03*
X54680000Y-133520000D03*
X91510000Y-133520000D03*
X91510000Y-125900000D03*
X83890000Y-125900000D03*
X83890000Y-133520000D03*
X78810000Y-133520000D03*
X78810000Y-125900000D03*
X73730000Y-133520000D03*
X73730000Y-125900000D03*
X128340000Y-133520000D03*
X128340000Y-125900000D03*
X120720000Y-125900000D03*
X120720000Y-133520000D03*
X115640000Y-133520000D03*
X115640000Y-125900000D03*
X110560000Y-133520000D03*
X110560000Y-125900000D03*
X147390000Y-125900000D03*
X147390000Y-133520000D03*
X152470000Y-125900000D03*
X152470000Y-133520000D03*
X157550000Y-133520000D03*
X157550000Y-125900000D03*
X165170000Y-125900000D03*
X165170000Y-133520000D03*
X36900000Y-43350000D03*
X36900000Y-50970000D03*
X41980000Y-43350000D03*
X41980000Y-50970000D03*
X47060000Y-50970000D03*
X47060000Y-43350000D03*
X54680000Y-43350000D03*
X54680000Y-50970000D03*
X91510000Y-50970000D03*
X91510000Y-43350000D03*
X83890000Y-43350000D03*
X83890000Y-50970000D03*
X78810000Y-50970000D03*
X78810000Y-43350000D03*
X73730000Y-50970000D03*
X73730000Y-43350000D03*
X128340000Y-50970000D03*
X128340000Y-43350000D03*
X120720000Y-43350000D03*
X120720000Y-50970000D03*
X115640000Y-50970000D03*
X115640000Y-43350000D03*
X110560000Y-50970000D03*
X110560000Y-43350000D03*
X147390000Y-43350000D03*
X147390000Y-50970000D03*
X152470000Y-43350000D03*
X152470000Y-50970000D03*
X157550000Y-50970000D03*
X157550000Y-43350000D03*
X165170000Y-43350000D03*
X165170000Y-50970000D03*
X54680000Y-67480000D03*
X54680000Y-59860000D03*
X47060000Y-59860000D03*
X47060000Y-67480000D03*
X41980000Y-67480000D03*
X41980000Y-59860000D03*
X36900000Y-67480000D03*
X36900000Y-59860000D03*
X73730000Y-59860000D03*
X73730000Y-67480000D03*
X78810000Y-59860000D03*
X78810000Y-67480000D03*
X83890000Y-67480000D03*
X83890000Y-59860000D03*
X91510000Y-59860000D03*
X91510000Y-67480000D03*
X128340000Y-67480000D03*
X128340000Y-59860000D03*
X120720000Y-59860000D03*
X120720000Y-67480000D03*
X115640000Y-67480000D03*
X115640000Y-59860000D03*
X110560000Y-67480000D03*
X110560000Y-59860000D03*
X147390000Y-59860000D03*
X147390000Y-67480000D03*
X152470000Y-59860000D03*
X152470000Y-67480000D03*
X157550000Y-67480000D03*
X157550000Y-59860000D03*
X165170000Y-59860000D03*
X165170000Y-67480000D03*
X54680000Y-83990000D03*
X54680000Y-76370000D03*
X47060000Y-76370000D03*
X47060000Y-83990000D03*
X41980000Y-83990000D03*
X41980000Y-76370000D03*
X36900000Y-83990000D03*
X36900000Y-76370000D03*
X91510000Y-83990000D03*
X91510000Y-76370000D03*
X83890000Y-76370000D03*
X83890000Y-83990000D03*
X78810000Y-83990000D03*
X78810000Y-76370000D03*
X73730000Y-83990000D03*
X73730000Y-76370000D03*
X110560000Y-76370000D03*
X110560000Y-83990000D03*
X115640000Y-76370000D03*
X115640000Y-83990000D03*
X120720000Y-83990000D03*
X120720000Y-76370000D03*
X128340000Y-76370000D03*
X128340000Y-83990000D03*
X147390000Y-76370000D03*
X147390000Y-83990000D03*
X152470000Y-76370000D03*
X152470000Y-83990000D03*
X157550000Y-83990000D03*
X157550000Y-76370000D03*
X165170000Y-76370000D03*
X165170000Y-83990000D03*
D14*
X66040000Y-99060000D03*
X66040000Y-100330000D03*
D15*
X66040000Y-97790000D03*
D14*
X102870000Y-99060000D03*
X102870000Y-100330000D03*
D15*
X102870000Y-97790000D03*
X139700000Y-97790000D03*
D14*
X139700000Y-100330000D03*
X139700000Y-99060000D03*
D15*
X176530000Y-97790000D03*
D14*
X176530000Y-100330000D03*
X176530000Y-99060000D03*
X66040000Y-115570000D03*
X66040000Y-116840000D03*
D15*
X66040000Y-114300000D03*
X102870000Y-114300000D03*
D14*
X102870000Y-116840000D03*
X102870000Y-115570000D03*
X139700000Y-115570000D03*
X139700000Y-116840000D03*
D15*
X139700000Y-114300000D03*
X176530000Y-114300000D03*
D14*
X176530000Y-116840000D03*
X176530000Y-115570000D03*
D15*
X66040000Y-130810000D03*
D14*
X66040000Y-133350000D03*
X66040000Y-132080000D03*
D15*
X102870000Y-130810000D03*
D14*
X102870000Y-133350000D03*
X102870000Y-132080000D03*
D15*
X139700000Y-130810000D03*
D14*
X139700000Y-133350000D03*
X139700000Y-132080000D03*
X176530000Y-132080000D03*
X176530000Y-133350000D03*
D15*
X176530000Y-130810000D03*
D14*
X66040000Y-49530000D03*
X66040000Y-50800000D03*
D15*
X66040000Y-48260000D03*
X102870000Y-48260000D03*
D14*
X102870000Y-50800000D03*
X102870000Y-49530000D03*
X139700000Y-49530000D03*
X139700000Y-50800000D03*
D15*
X139700000Y-48260000D03*
D14*
X176530000Y-49530000D03*
X176530000Y-50800000D03*
D15*
X176530000Y-48260000D03*
X66040000Y-64770000D03*
D14*
X66040000Y-67310000D03*
X66040000Y-66040000D03*
D15*
X102870000Y-64770000D03*
D14*
X102870000Y-67310000D03*
X102870000Y-66040000D03*
D15*
X139700000Y-64770000D03*
D14*
X139700000Y-67310000D03*
X139700000Y-66040000D03*
X176530000Y-66040000D03*
X176530000Y-67310000D03*
D15*
X176530000Y-64770000D03*
D14*
X66040000Y-82550000D03*
X66040000Y-83820000D03*
D15*
X66040000Y-81280000D03*
D14*
X102870000Y-82550000D03*
X102870000Y-83820000D03*
D15*
X102870000Y-81280000D03*
X139700000Y-81280000D03*
D14*
X139700000Y-83820000D03*
X139700000Y-82550000D03*
X176530000Y-82550000D03*
X176530000Y-83820000D03*
D15*
X176530000Y-81280000D03*
D16*
X66040000Y-95250000D03*
D17*
X66040000Y-92710000D03*
X102870000Y-92710000D03*
D16*
X102870000Y-95250000D03*
D17*
X139700000Y-92710000D03*
D16*
X139700000Y-95250000D03*
D17*
X176530000Y-92710000D03*
D16*
X176530000Y-95250000D03*
X66040000Y-111760000D03*
D17*
X66040000Y-109220000D03*
D16*
X102870000Y-111760000D03*
D17*
X102870000Y-109220000D03*
X139700000Y-109220000D03*
D16*
X139700000Y-111760000D03*
X176530000Y-111760000D03*
D17*
X176530000Y-109220000D03*
D16*
X66040000Y-128270000D03*
D17*
X66040000Y-125730000D03*
D16*
X102870000Y-128270000D03*
D17*
X102870000Y-125730000D03*
D16*
X139700000Y-128270000D03*
D17*
X139700000Y-125730000D03*
D16*
X176530000Y-128270000D03*
D17*
X176530000Y-125730000D03*
D16*
X66040000Y-45720000D03*
D17*
X66040000Y-43180000D03*
X102870000Y-43180000D03*
D16*
X102870000Y-45720000D03*
X139700000Y-45720000D03*
D17*
X139700000Y-43180000D03*
D16*
X176530000Y-45720000D03*
D17*
X176530000Y-43180000D03*
D16*
X66040000Y-62230000D03*
D17*
X66040000Y-59690000D03*
X102870000Y-59690000D03*
D16*
X102870000Y-62230000D03*
D17*
X139700000Y-59690000D03*
D16*
X139700000Y-62230000D03*
D17*
X176530000Y-59690000D03*
D16*
X176530000Y-62230000D03*
D17*
X66040000Y-76200000D03*
D16*
X66040000Y-78740000D03*
D17*
X102870000Y-76200000D03*
D16*
X102870000Y-78740000D03*
D17*
X139700000Y-76200000D03*
D16*
X139700000Y-78740000D03*
D17*
X176530000Y-76200000D03*
D16*
X176530000Y-78740000D03*
D18*
X193040000Y-128270000D03*
D17*
X193040000Y-125730000D03*
X193040000Y-123190000D03*
X193040000Y-120650000D03*
X193040000Y-118110000D03*
X193040000Y-115570000D03*
X193040000Y-113030000D03*
X185420000Y-113030000D03*
X185420000Y-115570000D03*
X185420000Y-118110000D03*
X185420000Y-120650000D03*
X185420000Y-123190000D03*
X185420000Y-125730000D03*
X185420000Y-128270000D03*
X193040000Y-110490000D03*
X185420000Y-110490000D03*
X185420000Y-77470000D03*
X193040000Y-77470000D03*
X185420000Y-95250000D03*
X185420000Y-92710000D03*
X185420000Y-90170000D03*
X185420000Y-87630000D03*
X185420000Y-85090000D03*
X185420000Y-82550000D03*
X185420000Y-80010000D03*
X193040000Y-80010000D03*
X193040000Y-82550000D03*
X193040000Y-85090000D03*
X193040000Y-87630000D03*
X193040000Y-90170000D03*
X193040000Y-92710000D03*
D18*
X193040000Y-95250000D03*
X193040000Y-62230000D03*
D17*
X193040000Y-59690000D03*
X193040000Y-57150000D03*
X193040000Y-54610000D03*
X193040000Y-52070000D03*
X193040000Y-49530000D03*
X193040000Y-46990000D03*
X185420000Y-46990000D03*
X185420000Y-49530000D03*
X185420000Y-52070000D03*
X185420000Y-54610000D03*
X185420000Y-57150000D03*
X185420000Y-59690000D03*
X185420000Y-62230000D03*
X193040000Y-44450000D03*
X185420000Y-44450000D03*
X198120000Y-105410000D03*
X198120000Y-107410000D03*
X208820000Y-90170000D03*
X210820000Y-90170000D03*
X199390000Y-62230000D03*
X201390000Y-62230000D03*
X200660000Y-126270000D03*
X200660000Y-128270000D03*
X200660000Y-91440000D03*
X200660000Y-89440000D03*
X200660000Y-44990000D03*
X200660000Y-46990000D03*
D14*
X205740000Y-101600000D03*
X205740000Y-100330000D03*
D15*
X205740000Y-102870000D03*
D16*
X207010000Y-107950000D03*
D17*
X204470000Y-107950000D03*
X204470000Y-95250000D03*
D16*
X207010000Y-95250000D03*
D19*
X207010000Y-77470000D03*
D20*
X204470000Y-77470000D03*
X201930000Y-77470000D03*
D18*
X59690000Y-92710000D03*
D16*
X59690000Y-100330000D03*
D18*
X96520000Y-92710000D03*
D16*
X96520000Y-100330000D03*
X133350000Y-100330000D03*
D18*
X133350000Y-92710000D03*
X170180000Y-92710000D03*
D16*
X170180000Y-100330000D03*
X59690000Y-116840000D03*
D18*
X59690000Y-109220000D03*
X96520000Y-109220000D03*
D16*
X96520000Y-116840000D03*
X133350000Y-116840000D03*
D18*
X133350000Y-109220000D03*
X170180000Y-109220000D03*
D16*
X170180000Y-116840000D03*
D18*
X59690000Y-125730000D03*
D16*
X59690000Y-133350000D03*
X96520000Y-133350000D03*
D18*
X96520000Y-125730000D03*
X133350000Y-125730000D03*
D16*
X133350000Y-133350000D03*
X170180000Y-133350000D03*
D18*
X170180000Y-125730000D03*
D16*
X59690000Y-50800000D03*
D18*
X59690000Y-43180000D03*
D16*
X96520000Y-50800000D03*
D18*
X96520000Y-43180000D03*
X133350000Y-43180000D03*
D16*
X133350000Y-50800000D03*
X170180000Y-50800000D03*
D18*
X170180000Y-43180000D03*
X59690000Y-59690000D03*
D16*
X59690000Y-67310000D03*
X96520000Y-67310000D03*
D18*
X96520000Y-59690000D03*
X133350000Y-59690000D03*
D16*
X133350000Y-67310000D03*
X170180000Y-67310000D03*
D18*
X170180000Y-59690000D03*
X59690000Y-76200000D03*
D16*
X59690000Y-83820000D03*
X96520000Y-83820000D03*
D18*
X96520000Y-76200000D03*
X133350000Y-76200000D03*
D16*
X133350000Y-83820000D03*
X170180000Y-83820000D03*
D18*
X170180000Y-76200000D03*
D21*
X91009500Y-107020100D03*
X90634700Y-58352600D03*
X210695800Y-55880000D03*
X216521500Y-107056300D03*
X71607700Y-76873100D03*
X108383700Y-94210500D03*
X209803500Y-58420000D03*
X215297900Y-104350000D03*
X205627900Y-66664800D03*
X217216900Y-77532800D03*
X188178400Y-122534600D03*
X210176900Y-120795600D03*
X208931600Y-63083400D03*
X72602200Y-119738000D03*
X109875500Y-123091400D03*
X144759400Y-114683000D03*
X190807500Y-102430300D03*
X68045900Y-96707700D03*
X100324200Y-77410700D03*
X184506000Y-58420000D03*
X171831600Y-80206800D03*
X180636800Y-55767300D03*
X69648800Y-73432600D03*
X106691600Y-72378400D03*
X144761800Y-73103700D03*
X181286100Y-53340000D03*
X187903200Y-99966000D03*
D22*
X157550000Y-133520000D02*
X156126300Y-134943700D01*
X156126300Y-134943700D02*
X122143700Y-134943700D01*
X122143700Y-134943700D02*
X120720000Y-133520000D01*
X120720000Y-133520000D02*
X119315400Y-134924600D01*
X119315400Y-134924600D02*
X85294600Y-134924600D01*
X85294600Y-134924600D02*
X83890000Y-133520000D01*
X47060000Y-133520000D02*
X41146000Y-127606000D01*
X41146000Y-127606000D02*
X28546000Y-127606000D01*
X28546000Y-127606000D02*
X26670000Y-125730000D01*
X83890000Y-133520000D02*
X82485400Y-134924600D01*
X82485400Y-134924600D02*
X48464600Y-134924600D01*
X48464600Y-134924600D02*
X47060000Y-133520000D01*
X102870000Y-64770000D02*
X66040000Y-64770000D01*
X193040000Y-44450000D02*
X191584800Y-42994800D01*
X191584800Y-42994800D02*
X181795200Y-42994800D01*
X181795200Y-42994800D02*
X176530000Y-48260000D01*
X200660000Y-44990000D02*
X193580000Y-44990000D01*
X193580000Y-44990000D02*
X193040000Y-44450000D01*
X202122900Y-127251100D02*
X202122900Y-128931000D01*
X202122900Y-128931000D02*
X200243900Y-130810000D01*
X200243900Y-130810000D02*
X176530000Y-130810000D01*
X200660000Y-126270000D02*
X201141800Y-126270000D01*
X201141800Y-126270000D02*
X202122900Y-127251100D01*
X202122900Y-127251100D02*
X214378900Y-127251100D01*
X214378900Y-127251100D02*
X215900000Y-125730000D01*
X204470000Y-77470000D02*
X204470000Y-77882600D01*
X204470000Y-77882600D02*
X205758800Y-79171400D01*
X205758800Y-79171400D02*
X208256900Y-79171400D01*
X208256900Y-79171400D02*
X215900000Y-71528300D01*
X215900000Y-71528300D02*
X215900000Y-68580000D01*
X176530000Y-130810000D02*
X139700000Y-130810000D01*
X66040000Y-64770000D02*
X33020000Y-64770000D01*
X33020000Y-64770000D02*
X31750000Y-63500000D01*
X102870000Y-48260000D02*
X139700000Y-48260000D01*
X83890000Y-125900000D02*
X82259700Y-124269700D01*
X82259700Y-124269700D02*
X48690300Y-124269700D01*
X48690300Y-124269700D02*
X47060000Y-125900000D01*
X120720000Y-125900000D02*
X119099600Y-124279600D01*
X119099600Y-124279600D02*
X85510400Y-124279600D01*
X85510400Y-124279600D02*
X83890000Y-125900000D01*
X157550000Y-125900000D02*
X155929600Y-124279600D01*
X155929600Y-124279600D02*
X122340400Y-124279600D01*
X122340400Y-124279600D02*
X120720000Y-125900000D01*
X47060000Y-125900000D02*
X41810000Y-120650000D01*
X41810000Y-120650000D02*
X26670000Y-120650000D01*
X120720000Y-117010000D02*
X119319600Y-118410400D01*
X119319600Y-118410400D02*
X85290400Y-118410400D01*
X85290400Y-118410400D02*
X83890000Y-117010000D01*
X83890000Y-117010000D02*
X82489600Y-118410400D01*
X82489600Y-118410400D02*
X48460400Y-118410400D01*
X48460400Y-118410400D02*
X47060000Y-117010000D01*
X157550000Y-117010000D02*
X156149600Y-118410400D01*
X156149600Y-118410400D02*
X122120400Y-118410400D01*
X122120400Y-118410400D02*
X120720000Y-117010000D01*
X47060000Y-117010000D02*
X45620000Y-115570000D01*
X45620000Y-115570000D02*
X26670000Y-115570000D01*
X91009500Y-107020100D02*
X91160300Y-106869300D01*
X91160300Y-106869300D02*
X118199300Y-106869300D01*
X118199300Y-106869300D02*
X120720000Y-109390000D01*
X47060000Y-109390000D02*
X48701900Y-107748100D01*
X48701900Y-107748100D02*
X82248100Y-107748100D01*
X82248100Y-107748100D02*
X83890000Y-109390000D01*
X47060000Y-109390000D02*
X45650800Y-110799200D01*
X45650800Y-110799200D02*
X26979200Y-110799200D01*
X26979200Y-110799200D02*
X26670000Y-110490000D01*
X157550000Y-109390000D02*
X155929600Y-107769600D01*
X155929600Y-107769600D02*
X122340400Y-107769600D01*
X122340400Y-107769600D02*
X120720000Y-109390000D01*
X120720000Y-100500000D02*
X123076000Y-102856000D01*
X123076000Y-102856000D02*
X155194000Y-102856000D01*
X155194000Y-102856000D02*
X157550000Y-100500000D01*
X47060000Y-100500000D02*
X43050300Y-104509700D01*
X43050300Y-104509700D02*
X27570300Y-104509700D01*
X27570300Y-104509700D02*
X26670000Y-105410000D01*
X83890000Y-100500000D02*
X82481700Y-101908300D01*
X82481700Y-101908300D02*
X48468300Y-101908300D01*
X48468300Y-101908300D02*
X47060000Y-100500000D01*
X120720000Y-100500000D02*
X119306100Y-101913900D01*
X119306100Y-101913900D02*
X85303900Y-101913900D01*
X85303900Y-101913900D02*
X83890000Y-100500000D01*
X83890000Y-92880000D02*
X82252200Y-91242200D01*
X82252200Y-91242200D02*
X48697800Y-91242200D01*
X48697800Y-91242200D02*
X47060000Y-92880000D01*
X120720000Y-92880000D02*
X119085400Y-91245400D01*
X119085400Y-91245400D02*
X85524600Y-91245400D01*
X85524600Y-91245400D02*
X83890000Y-92880000D01*
X47060000Y-92880000D02*
X42165800Y-97774200D01*
X42165800Y-97774200D02*
X29225800Y-97774200D01*
X29225800Y-97774200D02*
X26670000Y-100330000D01*
X157550000Y-92880000D02*
X155927100Y-91257100D01*
X155927100Y-91257100D02*
X122342900Y-91257100D01*
X122342900Y-91257100D02*
X120720000Y-92880000D01*
X47060000Y-43350000D02*
X41486000Y-48924000D01*
X41486000Y-48924000D02*
X28546000Y-48924000D01*
X28546000Y-48924000D02*
X26670000Y-50800000D01*
X83890000Y-43350000D02*
X82248800Y-41708800D01*
X82248800Y-41708800D02*
X48701200Y-41708800D01*
X48701200Y-41708800D02*
X47060000Y-43350000D01*
X157550000Y-43350000D02*
X155926500Y-41726500D01*
X155926500Y-41726500D02*
X122343500Y-41726500D01*
X122343500Y-41726500D02*
X120720000Y-43350000D01*
X120720000Y-43350000D02*
X119096500Y-41726500D01*
X119096500Y-41726500D02*
X85513500Y-41726500D01*
X85513500Y-41726500D02*
X83890000Y-43350000D01*
X83890000Y-50970000D02*
X82465200Y-52394800D01*
X82465200Y-52394800D02*
X48484800Y-52394800D01*
X48484800Y-52394800D02*
X47060000Y-50970000D01*
X120720000Y-50970000D02*
X119267500Y-52422500D01*
X119267500Y-52422500D02*
X85342500Y-52422500D01*
X85342500Y-52422500D02*
X83890000Y-50970000D01*
X120720000Y-50970000D02*
X122159400Y-52409400D01*
X122159400Y-52409400D02*
X156110600Y-52409400D01*
X156110600Y-52409400D02*
X157550000Y-50970000D01*
X47060000Y-50970000D02*
X42150000Y-55880000D01*
X42150000Y-55880000D02*
X26670000Y-55880000D01*
X83890000Y-59860000D02*
X82269700Y-58239700D01*
X82269700Y-58239700D02*
X48680300Y-58239700D01*
X48680300Y-58239700D02*
X47060000Y-59860000D01*
X90634700Y-58352600D02*
X90796700Y-58190600D01*
X90796700Y-58190600D02*
X119050600Y-58190600D01*
X119050600Y-58190600D02*
X120720000Y-59860000D01*
X120720000Y-59860000D02*
X122373000Y-58207000D01*
X122373000Y-58207000D02*
X155897000Y-58207000D01*
X155897000Y-58207000D02*
X157550000Y-59860000D01*
X47060000Y-59860000D02*
X45658800Y-61261200D01*
X45658800Y-61261200D02*
X26971200Y-61261200D01*
X26971200Y-61261200D02*
X26670000Y-60960000D01*
X83890000Y-67480000D02*
X82489600Y-68880400D01*
X82489600Y-68880400D02*
X48460400Y-68880400D01*
X48460400Y-68880400D02*
X47060000Y-67480000D01*
X120720000Y-67480000D02*
X119309700Y-68890300D01*
X119309700Y-68890300D02*
X85300300Y-68890300D01*
X85300300Y-68890300D02*
X83890000Y-67480000D01*
X120720000Y-67480000D02*
X122123900Y-68883900D01*
X122123900Y-68883900D02*
X156146100Y-68883900D01*
X156146100Y-68883900D02*
X157550000Y-67480000D01*
X47060000Y-67480000D02*
X45620000Y-66040000D01*
X45620000Y-66040000D02*
X26670000Y-66040000D01*
X83890000Y-76370000D02*
X82269600Y-74749600D01*
X82269600Y-74749600D02*
X48680400Y-74749600D01*
X48680400Y-74749600D02*
X47060000Y-76370000D01*
X120720000Y-76370000D02*
X119091800Y-74741800D01*
X119091800Y-74741800D02*
X85518200Y-74741800D01*
X85518200Y-74741800D02*
X83890000Y-76370000D01*
X47060000Y-76370000D02*
X41810000Y-71120000D01*
X41810000Y-71120000D02*
X26670000Y-71120000D01*
X120720000Y-76370000D02*
X123240700Y-73849300D01*
X123240700Y-73849300D02*
X144022100Y-73849300D01*
X144022100Y-73849300D02*
X144326800Y-74154000D01*
X144326800Y-74154000D02*
X145196900Y-74154000D01*
X145196900Y-74154000D02*
X145349300Y-74001600D01*
X145349300Y-74001600D02*
X155181600Y-74001600D01*
X155181600Y-74001600D02*
X157550000Y-76370000D01*
X83890000Y-83990000D02*
X85290400Y-85390400D01*
X85290400Y-85390400D02*
X119319600Y-85390400D01*
X119319600Y-85390400D02*
X120720000Y-83990000D01*
X83890000Y-83990000D02*
X82473000Y-85407000D01*
X82473000Y-85407000D02*
X48477000Y-85407000D01*
X48477000Y-85407000D02*
X47060000Y-83990000D01*
X26670000Y-76200000D02*
X30650000Y-80180000D01*
X30650000Y-80180000D02*
X43250000Y-80180000D01*
X43250000Y-80180000D02*
X47060000Y-83990000D01*
X157550000Y-83990000D02*
X156149600Y-85390400D01*
X156149600Y-85390400D02*
X122120400Y-85390400D01*
X122120400Y-85390400D02*
X120720000Y-83990000D01*
D23*
X66040000Y-100330000D02*
X59690000Y-100330000D01*
X59690000Y-100330000D02*
X54850000Y-100330000D01*
X54850000Y-100330000D02*
X54680000Y-100500000D01*
D22*
X96520000Y-43180000D02*
X91680000Y-43180000D01*
X91680000Y-43180000D02*
X91510000Y-43350000D01*
X170180000Y-109220000D02*
X168729700Y-109220000D01*
X165170000Y-109390000D02*
X168559700Y-109390000D01*
X168559700Y-109390000D02*
X168729700Y-109220000D01*
X134800300Y-76200000D02*
X136250600Y-74749700D01*
X136250600Y-74749700D02*
X143649200Y-74749700D01*
X143649200Y-74749700D02*
X143953800Y-75054300D01*
X143953800Y-75054300D02*
X145569900Y-75054300D01*
X145569900Y-75054300D02*
X145722200Y-74902000D01*
X145722200Y-74902000D02*
X148995700Y-74902000D01*
X148995700Y-74902000D02*
X151880200Y-77786500D01*
X151880200Y-77786500D02*
X163753500Y-77786500D01*
X163753500Y-77786500D02*
X165170000Y-76370000D01*
X96520000Y-109220000D02*
X97970300Y-109220000D01*
X128340000Y-109390000D02*
X126920800Y-110809200D01*
X126920800Y-110809200D02*
X120074600Y-110809200D01*
X120074600Y-110809200D02*
X117035100Y-107769700D01*
X117035100Y-107769700D02*
X99420600Y-107769700D01*
X99420600Y-107769700D02*
X97970300Y-109220000D01*
X133350000Y-109220000D02*
X128510000Y-109220000D01*
X128510000Y-109220000D02*
X128340000Y-109390000D01*
X185420000Y-128270000D02*
X186870400Y-129720400D01*
X186870400Y-129720400D02*
X199209600Y-129720400D01*
X199209600Y-129720400D02*
X200660000Y-128270000D01*
X201930000Y-77470000D02*
X202120200Y-77660200D01*
X202120200Y-77660200D02*
X202120200Y-90093700D01*
X202120200Y-90093700D02*
X200773900Y-91440000D01*
X200773900Y-91440000D02*
X200660000Y-91440000D01*
X185420000Y-80010000D02*
X189437200Y-75992800D01*
X189437200Y-75992800D02*
X200452800Y-75992800D01*
X200452800Y-75992800D02*
X201930000Y-77470000D01*
X170180000Y-92710000D02*
X168729700Y-92710000D01*
X165170000Y-92880000D02*
X168559700Y-92880000D01*
X168559700Y-92880000D02*
X168729700Y-92710000D01*
X133350000Y-92710000D02*
X131899700Y-92710000D01*
X128340000Y-92880000D02*
X131729700Y-92880000D01*
X131729700Y-92880000D02*
X131899700Y-92710000D01*
X96520000Y-59690000D02*
X95069700Y-59690000D01*
X91510000Y-59860000D02*
X94899700Y-59860000D01*
X94899700Y-59860000D02*
X95069700Y-59690000D01*
X96520000Y-76200000D02*
X95069700Y-76200000D01*
X91510000Y-76370000D02*
X94899700Y-76370000D01*
X94899700Y-76370000D02*
X95069700Y-76200000D01*
X59690000Y-125730000D02*
X58239700Y-125730000D01*
X54680000Y-125900000D02*
X58069700Y-125900000D01*
X58069700Y-125900000D02*
X58239700Y-125730000D01*
X170180000Y-76200000D02*
X165340000Y-76200000D01*
X165340000Y-76200000D02*
X165170000Y-76370000D01*
X133350000Y-76200000D02*
X134800300Y-76200000D01*
X133350000Y-43180000D02*
X128510000Y-43180000D01*
X128510000Y-43180000D02*
X128340000Y-43350000D01*
X133350000Y-59690000D02*
X128510000Y-59690000D01*
X128510000Y-59690000D02*
X128340000Y-59860000D01*
X170180000Y-125730000D02*
X165340000Y-125730000D01*
X165340000Y-125730000D02*
X165170000Y-125900000D01*
X59690000Y-43180000D02*
X54850000Y-43180000D01*
X54850000Y-43180000D02*
X54680000Y-43350000D01*
X170180000Y-43180000D02*
X165340000Y-43180000D01*
X165340000Y-43180000D02*
X165170000Y-43350000D01*
X170180000Y-59690000D02*
X165340000Y-59690000D01*
X165340000Y-59690000D02*
X165170000Y-59860000D01*
D23*
X96520000Y-100330000D02*
X91680000Y-100330000D01*
X91680000Y-100330000D02*
X91510000Y-100500000D01*
X102870000Y-100330000D02*
X96520000Y-100330000D01*
X139700000Y-100330000D02*
X133350000Y-100330000D01*
X133350000Y-100330000D02*
X128510000Y-100330000D01*
X128510000Y-100330000D02*
X128340000Y-100500000D01*
X176530000Y-100330000D02*
X170180000Y-100330000D01*
X170180000Y-100330000D02*
X165340000Y-100330000D01*
X165340000Y-100330000D02*
X165170000Y-100500000D01*
X66040000Y-116840000D02*
X59690000Y-116840000D01*
X59690000Y-116840000D02*
X54850000Y-116840000D01*
X54850000Y-116840000D02*
X54680000Y-117010000D01*
X96520000Y-116840000D02*
X91680000Y-116840000D01*
X91680000Y-116840000D02*
X91510000Y-117010000D01*
X102870000Y-116840000D02*
X96520000Y-116840000D01*
X133350000Y-116840000D02*
X128510000Y-116840000D01*
X128510000Y-116840000D02*
X128340000Y-117010000D01*
X139700000Y-116840000D02*
X133350000Y-116840000D01*
X176530000Y-116840000D02*
X170180000Y-116840000D01*
X170180000Y-116840000D02*
X165340000Y-116840000D01*
X165340000Y-116840000D02*
X165170000Y-117010000D01*
X59690000Y-133350000D02*
X54850000Y-133350000D01*
X54850000Y-133350000D02*
X54680000Y-133520000D01*
X66040000Y-133350000D02*
X59690000Y-133350000D01*
X96520000Y-133350000D02*
X91680000Y-133350000D01*
X91680000Y-133350000D02*
X91510000Y-133520000D01*
X102870000Y-133350000D02*
X96520000Y-133350000D01*
X139700000Y-133350000D02*
X133350000Y-133350000D01*
X133350000Y-133350000D02*
X128510000Y-133350000D01*
X128510000Y-133350000D02*
X128340000Y-133520000D01*
X170180000Y-133350000D02*
X165340000Y-133350000D01*
X165340000Y-133350000D02*
X165170000Y-133520000D01*
X176530000Y-133350000D02*
X170180000Y-133350000D01*
X66040000Y-50800000D02*
X59690000Y-50800000D01*
X59690000Y-50800000D02*
X54850000Y-50800000D01*
X54850000Y-50800000D02*
X54680000Y-50970000D01*
X96520000Y-50800000D02*
X91680000Y-50800000D01*
X91680000Y-50800000D02*
X91510000Y-50970000D01*
X102870000Y-50800000D02*
X96520000Y-50800000D01*
X133350000Y-50800000D02*
X128510000Y-50800000D01*
X128510000Y-50800000D02*
X128340000Y-50970000D01*
X139700000Y-50800000D02*
X133350000Y-50800000D01*
X170180000Y-50800000D02*
X165340000Y-50800000D01*
X165340000Y-50800000D02*
X165170000Y-50970000D01*
X176530000Y-50800000D02*
X170180000Y-50800000D01*
X66040000Y-67310000D02*
X59690000Y-67310000D01*
X59690000Y-67310000D02*
X54850000Y-67310000D01*
X54850000Y-67310000D02*
X54680000Y-67480000D01*
X102870000Y-67310000D02*
X96520000Y-67310000D01*
X96520000Y-67310000D02*
X91680000Y-67310000D01*
X91680000Y-67310000D02*
X91510000Y-67480000D01*
X139700000Y-67310000D02*
X133350000Y-67310000D01*
X133350000Y-67310000D02*
X128510000Y-67310000D01*
X128510000Y-67310000D02*
X128340000Y-67480000D01*
X170180000Y-67310000D02*
X176530000Y-67310000D01*
X165170000Y-67480000D02*
X165340000Y-67310000D01*
X165340000Y-67310000D02*
X170180000Y-67310000D01*
X66040000Y-83820000D02*
X59690000Y-83820000D01*
X59690000Y-83820000D02*
X54850000Y-83820000D01*
X54850000Y-83820000D02*
X54680000Y-83990000D01*
X102870000Y-83820000D02*
X96520000Y-83820000D01*
X96520000Y-83820000D02*
X91680000Y-83820000D01*
X91680000Y-83820000D02*
X91510000Y-83990000D01*
X133350000Y-83820000D02*
X128510000Y-83820000D01*
X128510000Y-83820000D02*
X128340000Y-83990000D01*
X139700000Y-83820000D02*
X133350000Y-83820000D01*
X176530000Y-83820000D02*
X170180000Y-83820000D01*
X170180000Y-83820000D02*
X165340000Y-83820000D01*
X165340000Y-83820000D02*
X165170000Y-83990000D01*
D22*
X36900000Y-109390000D02*
X40598400Y-105691600D01*
X40598400Y-105691600D02*
X88942700Y-105691600D01*
X88942700Y-105691600D02*
X89579200Y-105055100D01*
X89579200Y-105055100D02*
X191908000Y-105055100D01*
X191908000Y-105055100D02*
X197342900Y-110490000D01*
X197342900Y-110490000D02*
X213360000Y-110490000D01*
X73730000Y-109390000D02*
X75202800Y-110862800D01*
X75202800Y-110862800D02*
X85681200Y-110862800D01*
X85681200Y-110862800D02*
X90588500Y-105955500D01*
X90588500Y-105955500D02*
X191535100Y-105955500D01*
X191535100Y-105955500D02*
X198609600Y-113030000D01*
X198609600Y-113030000D02*
X213360000Y-113030000D01*
X213360000Y-55880000D02*
X210695800Y-55880000D01*
X71607700Y-76873100D02*
X73730000Y-78995400D01*
X73730000Y-78995400D02*
X73730000Y-83990000D01*
X216521500Y-107056300D02*
X216521500Y-108928300D01*
X216521500Y-108928300D02*
X217412600Y-109819400D01*
X217412600Y-109819400D02*
X217412600Y-111517400D01*
X217412600Y-111517400D02*
X215900000Y-113030000D01*
X108383700Y-94210500D02*
X109229500Y-94210500D01*
X109229500Y-94210500D02*
X110560000Y-92880000D01*
X213360000Y-58420000D02*
X209803500Y-58420000D01*
X110560000Y-100500000D02*
X111982500Y-99077500D01*
X111982500Y-99077500D02*
X124849300Y-99077500D01*
X124849300Y-99077500D02*
X127727500Y-101955700D01*
X127727500Y-101955700D02*
X148946100Y-101955700D01*
X148946100Y-101955700D02*
X151806900Y-99094900D01*
X151806900Y-99094900D02*
X159355100Y-99094900D01*
X159355100Y-99094900D02*
X163740800Y-103480600D01*
X163740800Y-103480600D02*
X203023200Y-103480600D01*
X203023200Y-103480600D02*
X203892600Y-104350000D01*
X203892600Y-104350000D02*
X215297900Y-104350000D01*
X215297900Y-104350000D02*
X215325600Y-104350000D01*
X215325600Y-104350000D02*
X218312900Y-107337300D01*
X218312900Y-107337300D02*
X218312900Y-113157100D01*
X218312900Y-113157100D02*
X215900000Y-115570000D01*
X147390000Y-76370000D02*
X149772900Y-78752900D01*
X149772900Y-78752900D02*
X171505400Y-78752900D01*
X171505400Y-78752900D02*
X183593500Y-66664800D01*
X183593500Y-66664800D02*
X205627900Y-66664800D01*
X213360000Y-60960000D02*
X209463300Y-60960000D01*
X209463300Y-60960000D02*
X205627900Y-64795400D01*
X205627900Y-64795400D02*
X205627900Y-66664800D01*
X217216900Y-77532800D02*
X219254000Y-79569900D01*
X219254000Y-79569900D02*
X219254000Y-116256300D01*
X219254000Y-116256300D02*
X217400300Y-118110000D01*
X147390000Y-133520000D02*
X148816200Y-132093800D01*
X148816200Y-132093800D02*
X158924300Y-132093800D01*
X158924300Y-132093800D02*
X161785800Y-134955300D01*
X161785800Y-134955300D02*
X208834500Y-134955300D01*
X208834500Y-134955300D02*
X217400300Y-126389500D01*
X217400300Y-126389500D02*
X217400300Y-118110000D01*
X215900000Y-118110000D02*
X217400300Y-118110000D01*
D23*
X212184700Y-120650000D02*
X211025400Y-121809300D01*
X211025400Y-121809300D02*
X186800700Y-121809300D01*
X186800700Y-121809300D02*
X185420000Y-123190000D01*
X213360000Y-120650000D02*
X212184700Y-120650000D01*
X185420000Y-52070000D02*
X191628600Y-45861400D01*
X191628600Y-45861400D02*
X195817400Y-45861400D01*
X195817400Y-45861400D02*
X201173300Y-51217300D01*
X201173300Y-51217300D02*
X215743700Y-51217300D01*
X215743700Y-51217300D02*
X217286500Y-52760100D01*
X217286500Y-52760100D02*
X217286500Y-62113500D01*
X217286500Y-62113500D02*
X215900000Y-63500000D01*
X215900000Y-120650000D02*
X214724700Y-120650000D01*
X188178400Y-122534600D02*
X189983500Y-124339700D01*
X189983500Y-124339700D02*
X209614600Y-124339700D01*
X209614600Y-124339700D02*
X212129000Y-121825300D01*
X212129000Y-121825300D02*
X213916800Y-121825300D01*
X213916800Y-121825300D02*
X214724700Y-121017400D01*
X214724700Y-121017400D02*
X214724700Y-120650000D01*
X185420000Y-115570000D02*
X190423000Y-115570000D01*
X190423000Y-115570000D02*
X191693000Y-116840000D01*
X191693000Y-116840000D02*
X206221300Y-116840000D01*
X206221300Y-116840000D02*
X210176900Y-120795600D01*
X213360000Y-66040000D02*
X212184700Y-66040000D01*
X185420000Y-82550000D02*
X184079500Y-81209500D01*
X184079500Y-81209500D02*
X184079500Y-77204100D01*
X184079500Y-77204100D02*
X186518700Y-74764900D01*
X186518700Y-74764900D02*
X203459800Y-74764900D01*
X203459800Y-74764900D02*
X212184700Y-66040000D01*
X213360000Y-63500000D02*
X212184700Y-63500000D01*
X208931600Y-63083400D02*
X211768100Y-63083400D01*
X211768100Y-63083400D02*
X212184700Y-63500000D01*
X72602200Y-119738000D02*
X74035000Y-121170800D01*
X74035000Y-121170800D02*
X180860800Y-121170800D01*
X180860800Y-121170800D02*
X185420000Y-125730000D01*
X193040000Y-128270000D02*
X191914700Y-128270000D01*
X191914700Y-128270000D02*
X190503300Y-126858600D01*
X190503300Y-126858600D02*
X179658800Y-126858600D01*
X179658800Y-126858600D02*
X175891600Y-123091400D01*
X175891600Y-123091400D02*
X109875500Y-123091400D01*
X193040000Y-125730000D02*
X187220200Y-125730000D01*
X187220200Y-125730000D02*
X186094800Y-124604600D01*
X186094800Y-124604600D02*
X184931500Y-124604600D01*
X184931500Y-124604600D02*
X180778900Y-120452000D01*
X180778900Y-120452000D02*
X162948800Y-120452000D01*
X162948800Y-120452000D02*
X157179800Y-114683000D01*
X157179800Y-114683000D02*
X144759400Y-114683000D01*
X190807500Y-102430300D02*
X186250300Y-102430300D01*
X186250300Y-102430300D02*
X176530000Y-92710000D01*
X193040000Y-120650000D02*
X191804700Y-119414700D01*
X191804700Y-119414700D02*
X162548400Y-119414700D01*
X162548400Y-119414700D02*
X156360600Y-113226900D01*
X156360600Y-113226900D02*
X70046900Y-113226900D01*
X70046900Y-113226900D02*
X66040000Y-109220000D01*
X102870000Y-109220000D02*
X105253500Y-111603500D01*
X105253500Y-111603500D02*
X129224300Y-111603500D01*
X129224300Y-111603500D02*
X130222500Y-110605300D01*
X130222500Y-110605300D02*
X140448400Y-110605300D01*
X140448400Y-110605300D02*
X141790400Y-111947300D01*
X141790400Y-111947300D02*
X156057300Y-111947300D01*
X156057300Y-111947300D02*
X162243600Y-118133600D01*
X162243600Y-118133600D02*
X177954400Y-118133600D01*
X177954400Y-118133600D02*
X179120200Y-116967800D01*
X179120200Y-116967800D02*
X191106900Y-116967800D01*
X191106900Y-116967800D02*
X192249100Y-118110000D01*
X192249100Y-118110000D02*
X193040000Y-118110000D01*
X193040000Y-115570000D02*
X191911400Y-114441400D01*
X191911400Y-114441400D02*
X181093600Y-114441400D01*
X181093600Y-114441400D02*
X179879000Y-113226800D01*
X179879000Y-113226800D02*
X159583300Y-113226800D01*
X159583300Y-113226800D02*
X157047400Y-110690900D01*
X157047400Y-110690900D02*
X141170900Y-110690900D01*
X141170900Y-110690900D02*
X139700000Y-109220000D01*
X193040000Y-113030000D02*
X189230000Y-109220000D01*
X189230000Y-109220000D02*
X176530000Y-109220000D01*
X185420000Y-92710000D02*
X184094600Y-91384600D01*
X184094600Y-91384600D02*
X164506800Y-91384600D01*
X164506800Y-91384600D02*
X159183700Y-96707700D01*
X159183700Y-96707700D02*
X68045900Y-96707700D01*
X193040000Y-87630000D02*
X191876300Y-86466300D01*
X191876300Y-86466300D02*
X162282700Y-86466300D01*
X162282700Y-86466300D02*
X156046000Y-80229600D01*
X156046000Y-80229600D02*
X106159800Y-80229600D01*
X106159800Y-80229600D02*
X103340900Y-77410700D01*
X103340900Y-77410700D02*
X100324200Y-77410700D01*
X102870000Y-43180000D02*
X106850000Y-47160000D01*
X106850000Y-47160000D02*
X156950800Y-47160000D01*
X156950800Y-47160000D02*
X166458700Y-56667900D01*
X166458700Y-56667900D02*
X182753900Y-56667900D01*
X182753900Y-56667900D02*
X184506000Y-58420000D01*
X193040000Y-82550000D02*
X191849400Y-83740600D01*
X191849400Y-83740600D02*
X183249600Y-83740600D01*
X183249600Y-83740600D02*
X179715800Y-80206800D01*
X179715800Y-80206800D02*
X171831600Y-80206800D01*
X185420000Y-59690000D02*
X184750300Y-59690000D01*
X184750300Y-59690000D02*
X182475500Y-57415200D01*
X182475500Y-57415200D02*
X90263600Y-57415200D01*
X90263600Y-57415200D02*
X86504100Y-61174700D01*
X86504100Y-61174700D02*
X67524700Y-61174700D01*
X67524700Y-61174700D02*
X66040000Y-59690000D01*
X191914700Y-62230000D02*
X190581200Y-63563500D01*
X190581200Y-63563500D02*
X106743500Y-63563500D01*
X106743500Y-63563500D02*
X102870000Y-59690000D01*
X193040000Y-62230000D02*
X191914700Y-62230000D01*
X193040000Y-59690000D02*
X191914600Y-60815400D01*
X191914600Y-60815400D02*
X175724600Y-60815400D01*
X175724600Y-60815400D02*
X175361700Y-61178300D01*
X175361700Y-61178300D02*
X141188300Y-61178300D01*
X141188300Y-61178300D02*
X139700000Y-59690000D01*
X193040000Y-57150000D02*
X191657300Y-55767300D01*
X191657300Y-55767300D02*
X180636800Y-55767300D01*
X193040000Y-54610000D02*
X194165400Y-55735400D01*
X194165400Y-55735400D02*
X194165400Y-63200700D01*
X194165400Y-63200700D02*
X193195900Y-64170200D01*
X193195900Y-64170200D02*
X182651700Y-64170200D01*
X182651700Y-64170200D02*
X176016100Y-70805800D01*
X176016100Y-70805800D02*
X72275600Y-70805800D01*
X72275600Y-70805800D02*
X69648800Y-73432600D01*
X106691600Y-72378400D02*
X175509400Y-72378400D01*
X175509400Y-72378400D02*
X182761400Y-65126400D01*
X182761400Y-65126400D02*
X192876600Y-65126400D01*
X192876600Y-65126400D02*
X194617700Y-63385300D01*
X194617700Y-63385300D02*
X194617700Y-53647700D01*
X194617700Y-53647700D02*
X193040000Y-52070000D01*
X144761800Y-73103700D02*
X176058000Y-73103700D01*
X176058000Y-73103700D02*
X183585000Y-65576700D01*
X183585000Y-65576700D02*
X193063200Y-65576700D01*
X193063200Y-65576700D02*
X195070000Y-63569900D01*
X195070000Y-63569900D02*
X195070000Y-51560000D01*
X195070000Y-51560000D02*
X193040000Y-49530000D01*
X193040000Y-46990000D02*
X186690000Y-53340000D01*
X186690000Y-53340000D02*
X181286100Y-53340000D01*
X207010000Y-107950000D02*
X205884700Y-107950000D01*
X198120000Y-105410000D02*
X203855900Y-105410000D01*
X203855900Y-105410000D02*
X205884700Y-107438800D01*
X205884700Y-107438800D02*
X205884700Y-107950000D01*
D22*
X207010000Y-77470000D02*
X207010000Y-75819700D01*
X213360000Y-68580000D02*
X213360000Y-70080300D01*
X213360000Y-70080300D02*
X207620600Y-75819700D01*
X207620600Y-75819700D02*
X207010000Y-75819700D01*
D23*
X205740000Y-100330000D02*
X205740000Y-99479700D01*
X206517900Y-95250000D02*
X206517900Y-98701800D01*
X206517900Y-98701800D02*
X205740000Y-99479700D01*
X206517900Y-95250000D02*
X205884700Y-95250000D01*
X207010000Y-95250000D02*
X206517900Y-95250000D01*
X190823400Y-93901300D02*
X190823400Y-97045800D01*
X190823400Y-97045800D02*
X187903200Y-99966000D01*
X185420000Y-87630000D02*
X190823400Y-93033400D01*
X190823400Y-93033400D02*
X190823400Y-93901300D01*
X190823400Y-93901300D02*
X205098600Y-93901300D01*
X205098600Y-93901300D02*
X205884700Y-94687400D01*
X205884700Y-94687400D02*
X205884700Y-95250000D01*
M02*
